<?xml version="1.0" standalone="no"?><!DOCTYPE svg PUBLIC "-//W3C//DTD SVG 1.1//EN" "http://www.w3.org/Graphics/SVG/1.1/DTD/svg11.dtd"><svg t="1742786856481" class="icon" viewBox="0 0 1024 1024" version="1.1" xmlns="http://www.w3.org/2000/svg" p-id="2453" xmlns:xlink="http://www.w3.org/1999/xlink" width="256" height="256"><path d="M512 266.666667a160 160 0 1 0 0 320 160 160 0 0 0 0-320zM416 426.666667a96 96 0 1 1 192 0 96 96 0 0 1-192 0z" p-id="2454" fill="#2c2c2c"></path><path d="M512 85.333333C276.352 85.333333 85.333333 276.352 85.333333 512s191.018667 426.666667 426.666667 426.666667 426.666667-191.018667 426.666667-426.666667S747.648 85.333333 512 85.333333zM149.333333 512a362.666667 362.666667 0 1 1 626.986667 248.32c-67.413333-69.546667-159.488-109.653333-264.32-109.653333-104.874667 0-196.949333 40.106667-264.32 109.653333A361.386667 361.386667 0 0 1 149.333333 512z m362.666667 202.666667c86.528 0 161.322667 32.341333 216.533333 88.32A361.088 361.088 0 0 1 512 874.666667a361.088 361.088 0 0 1-216.533333-71.68C350.72 747.008 425.429333 714.666667 512 714.666667z" p-id="2455" fill="#2c2c2c"></path></svg>