<?xml version="1.0" standalone="no"?><!DOCTYPE svg PUBLIC "-//W3C//DTD SVG 1.1//EN" "http://www.w3.org/Graphics/SVG/1.1/DTD/svg11.dtd"><svg t="1742884534412" class="icon" viewBox="0 0 1024 1024" version="1.1" xmlns="http://www.w3.org/2000/svg" p-id="8078" xmlns:xlink="http://www.w3.org/1999/xlink" width="256" height="256"><path d="M512 78.222222c44.088889 36.977778 163.555556 116.622222 356.977778 116.622222v389.688889c0 157.866667-116.622222 280.177778-358.4 375.466667-129.422222-51.2-227.555556-109.511111-277.333334-164.977778l-4.266666-4.266666c-66.844444-76.8-75.377778-150.755556-75.377778-206.222223V194.844444c197.688889 0 314.311111-79.644444 358.4-116.622222m0-75.377778c-2.844444 0-7.111111 1.422222-9.955556 4.266667l-12.8 14.222222c-1.422222 1.422222-110.933333 116.622222-338.488888 116.622223H110.933333c-7.111111 0-12.8 5.688889-12.8 12.8v433.777777c0 69.688889 12.8 156.444444 91.022223 244.622223l4.266666 4.266666c58.311111 64 163.555556 126.577778 308.622222 183.466667l11.377778 4.266667 11.377778-4.266667C871.822222 881.777778 927.288889 705.422222 927.288889 584.533333V150.755556c0-7.111111-5.688889-12.8-12.8-12.8h-42.666667c-221.866667 0-334.222222-116.622222-335.644444-116.622223l-12.8-14.222222c-4.266667-2.844444-7.111111-4.266667-11.377778-4.266667" fill="#ffffff" p-id="8079"></path><path d="M558.933333 524.8v-25.6h126.577778v-38.4h-126.577778v-22.755556h125.155556v-38.4h-125.155556v-24.177777h146.488889v-39.822223h-142.222222c-7.111111-17.066667-14.222222-32.711111-21.333333-46.933333L540.444444 284.444444l-48.355555 8.533334 4.266667 7.111111c7.111111 11.377778 14.222222 22.755556 19.911111 35.555555h-102.4c5.688889-11.377778 9.955556-22.755556 15.644444-34.133333l2.844445-5.688889-45.511112-8.533333-1.422222 4.266667c-19.911111 52.622222-55.466667 102.4-105.244444 147.911111l-2.844445 1.422222 14.222223 45.511111 7.111111-5.688889c17.066667-14.222222 32.711111-29.866667 48.355555-46.933333v130.844444h366.933334v-41.244444H558.933333z m-45.511111 0h-122.311111v-25.6h122.311111v25.6z m0-62.577778h-122.311111v-22.755555h122.311111v22.755555z m0-62.577778h-122.311111v-22.755555l1.422222-1.422222h120.888889v24.177777zM345.6 593.066667v152.177777h45.511111v-24.177777h244.622222v24.177777H682.666667V593.066667H345.6z m291.555556 86.755555H392.533333v-45.511111h244.622223v45.511111z" fill="#ffffff" p-id="8080"></path></svg>