<?xml version="1.0" standalone="no"?><!DOCTYPE svg PUBLIC "-//W3C//DTD SVG 1.1//EN" "http://www.w3.org/Graphics/SVG/1.1/DTD/svg11.dtd"><svg t="1742547618944" class="icon" viewBox="0 0 1024 1024" version="1.1" xmlns="http://www.w3.org/2000/svg" p-id="20250" xmlns:xlink="http://www.w3.org/1999/xlink" width="256" height="256"><path d="M0 512c0 282.752 229.248 512 512 512s512-229.248 512-512S794.752 0 512 0 0 229.248 0 512z m896 0c0 212.032-171.968 384-384 384S128 724.032 128 512 299.968 128 512 128s384 171.968 384 384z m-621.312-45.248l128-128a64.298667 64.298667 0 0 1 69.824-13.888A64.042667 64.042667 0 0 1 512 384v64h192c35.392 0 64 28.608 64 64s-28.608 64-64 64h-192v64a64.042667 64.042667 0 0 1-109.312 45.248l-128-128A63.829333 63.829333 0 0 1 255.936 512c0-16.384 6.272-32.768 18.752-45.248z" fill="" p-id="20251"></path></svg>