<?xml version="1.0" encoding="UTF-8"?>
<!DOCTYPE svg PUBLIC "-//W3C//DTD SVG 1.1//EN" "http://www.w3.org/Graphics/SVG/1.1/DTD/svg11.dtd">
<svg xmlns="http://www.w3.org/2000/svg" version="1.1" width="92px" height="46px" style="shape-rendering:geometricPrecision; text-rendering:geometricPrecision; image-rendering:optimizeQuality; fill-rule:evenodd; clip-rule:evenodd" xmlns:xlink="http://www.w3.org/1999/xlink">
<g><path style="opacity:1" fill="#e0e3e6" d="M 43.5,-0.5 C 45.1667,-0.5 46.8333,-0.5 48.5,-0.5C 52.5,0.166667 56.5,0.833333 60.5,1.5C 53.0115,2.02214 45.6782,2.68881 38.5,3.5C 36.901,3.23219 35.5676,3.56552 34.5,4.5C 34.1667,4.5 33.8333,4.5 33.5,4.5C 31.8333,4.5 30.1667,4.5 28.5,4.5C 25.9028,4.27917 25.9028,3.77917 28.5,3C 30.5,2.66667 32.5,2.33333 34.5,2C 33.2068,1.50999 31.8734,1.34332 30.5,1.5C 34.8333,0.833333 39.1667,0.166667 43.5,-0.5 Z"/></g>
<g><path style="opacity:1" fill="#ced1d6" d="M 60.5,1.5 C 64.8371,1.58413 68.8371,2.58413 72.5,4.5C 71.4168,4.53944 70.4168,4.87277 69.5,5.5C 64.9585,4.01551 60.2919,3.34884 55.5,3.5C 49.8333,3.5 44.1667,3.5 38.5,3.5C 45.6782,2.68881 53.0115,2.02214 60.5,1.5 Z"/></g>
<g><path style="opacity:1" fill="#d8dee1" d="M 30.5,1.5 C 31.8734,1.34332 33.2068,1.50999 34.5,2C 32.5,2.33333 30.5,2.66667 28.5,3C 25.9028,3.77917 25.9028,4.27917 28.5,4.5C 23.4723,5.59428 18.8056,7.59428 14.5,10.5C 11.6298,11.4333 9.29645,13.1 7.5,15.5C 6.44802,15.6495 5.44802,15.4828 4.5,15C 8.28224,11.22 12.6156,8.22003 17.5,6C 16.9056,5.53566 16.2389,5.36899 15.5,5.5C 20.1935,3.38589 25.1935,2.05256 30.5,1.5 Z"/></g>
<g><path style="opacity:1" fill="#0a4583" d="M 33.5,4.5 C 33.8333,4.5 34.1667,4.5 34.5,4.5C 41.175,4.33375 47.8417,4.50042 54.5,5C 58.7225,5.55395 62.7225,6.72062 66.5,8.5C 66.8333,9.5 67.5,10.1667 68.5,10.5C 68.3257,13.763 66.659,15.4296 63.5,15.5C 64.7997,14.399 65.2997,13.0657 65,11.5C 61.3369,9.95965 57.8369,8.29299 54.5,6.5C 51.1667,6.5 47.8333,6.5 44.5,6.5C 42.5,6.5 40.5,6.5 38.5,6.5C 37.0267,7.07145 35.36,7.07145 33.5,6.5C 33.5,6.16667 33.5,5.83333 33.5,5.5C 33.5,5.16667 33.5,4.83333 33.5,4.5 Z"/></g>
<g><path style="opacity:1" fill="#1d4675" d="M 28.5,4.5 C 30.1667,4.5 31.8333,4.5 33.5,4.5C 33.5,4.83333 33.5,5.16667 33.5,5.5C 31.2591,6.29977 30.2591,7.96644 30.5,10.5C 30.1667,10.5 29.8333,10.5 29.5,10.5C 29.5,9.5 29.5,8.5 29.5,7.5C 24.355,8.18818 19.355,9.18818 14.5,10.5C 18.8056,7.59428 23.4723,5.59428 28.5,4.5 Z"/></g>
<g><path style="opacity:1" fill="#0255a1" d="M 38.5,6.5 C 40.5,6.5 42.5,6.5 44.5,6.5C 47.3879,6.9952 49.7212,8.4952 51.5,11C 51.1667,12 50.8333,13 50.5,14C 51.4158,14.2784 52.0825,14.7784 52.5,15.5C 51.8333,15.5 51.1667,15.5 50.5,15.5C 45.7962,14.2671 41.4629,12.2671 37.5,9.5C 38.1272,8.58317 38.4606,7.58317 38.5,6.5 Z"/></g>
<g><path style="opacity:1" fill="#004e99" d="M 44.5,6.5 C 47.8333,6.5 51.1667,6.5 54.5,6.5C 56.0758,7.28321 57.4092,8.44988 58.5,10C 57.2532,11.4579 57.2532,12.9579 58.5,14.5C 56.604,15.4656 54.604,15.7989 52.5,15.5C 52.0825,14.7784 51.4158,14.2784 50.5,14C 50.8333,13 51.1667,12 51.5,11C 49.7212,8.4952 47.3879,6.9952 44.5,6.5 Z"/></g>
<g><path style="opacity:1" fill="#213b5e" d="M 34.5,4.5 C 35.5676,3.56552 36.901,3.23219 38.5,3.5C 44.1667,3.5 49.8333,3.5 55.5,3.5C 61.3257,4.63723 66.9923,6.30389 72.5,8.5C 70.5,8.5 68.5,8.5 66.5,8.5C 62.7225,6.72062 58.7225,5.55395 54.5,5C 47.8417,4.50042 41.175,4.33375 34.5,4.5 Z"/></g>
<g><path style="opacity:1" fill="#0c4a8b" d="M 54.5,6.5 C 57.8369,8.29299 61.3369,9.95965 65,11.5C 65.2997,13.0657 64.7997,14.399 63.5,15.5C 62.0813,16.4511 60.4147,16.7845 58.5,16.5C 57.1667,16.5 55.8333,16.5 54.5,16.5C 53.1667,16.5 51.8333,16.5 50.5,16.5C 50.5,16.1667 50.5,15.8333 50.5,15.5C 51.1667,15.5 51.8333,15.5 52.5,15.5C 54.604,15.7989 56.604,15.4656 58.5,14.5C 57.2532,12.9579 57.2532,11.4579 58.5,10C 57.4092,8.44988 56.0758,7.28321 54.5,6.5 Z"/></g>
<g><path style="opacity:1" fill="#b3b8c2" d="M 55.5,3.5 C 60.2919,3.34884 64.9585,4.01551 69.5,5.5C 70.4168,4.87277 71.4168,4.53944 72.5,4.5C 75.2406,4.70732 77.5739,5.70732 79.5,7.5C 78.2223,7.78219 77.2223,8.44886 76.5,9.5C 75.1667,9.16667 73.8333,8.83333 72.5,8.5C 66.9923,6.30389 61.3257,4.63723 55.5,3.5 Z"/></g>
<g><path style="opacity:1" fill="#1f63a3" d="M 33.5,6.5 C 35.36,7.07145 37.0267,7.07145 38.5,6.5C 38.4606,7.58317 38.1272,8.58317 37.5,9.5C 41.4629,12.2671 45.7962,14.2671 50.5,15.5C 50.5,15.8333 50.5,16.1667 50.5,16.5C 49.8333,16.5 49.1667,16.5 48.5,16.5C 46.7839,16.3713 45.1172,16.038 43.5,15.5C 40.8298,14.7521 38.1631,13.7521 35.5,12.5C 35.0293,10.4214 34.3627,8.42136 33.5,6.5 Z"/></g>
<g><path style="opacity:1" fill="#183a6c" d="M 66.5,8.5 C 68.5,8.5 70.5,8.5 72.5,8.5C 73.8333,8.83333 75.1667,9.16667 76.5,9.5C 77.6935,10.2719 78.6935,11.2719 79.5,12.5C 79.5,13.5 79.5,14.5 79.5,15.5C 76.8333,15.5 74.1667,15.5 71.5,15.5C 70.5084,15.6716 69.8417,15.3382 69.5,14.5C 69.7678,12.901 69.4345,11.5676 68.5,10.5C 67.5,10.1667 66.8333,9.5 66.5,8.5 Z"/></g>
<g><path style="opacity:1" fill="#08599f" d="M 29.5,10.5 C 24.2197,12.813 18.8863,14.813 13.5,16.5C 12.5,16.5 11.5,16.5 10.5,16.5C 12.1921,14.7952 13.5254,12.7952 14.5,10.5C 19.355,9.18818 24.355,8.18818 29.5,7.5C 29.5,8.5 29.5,9.5 29.5,10.5 Z"/></g>
<g><path style="opacity:1" fill="#98979a" d="M 79.5,7.5 C 84.1045,9.1053 87.4378,12.1053 89.5,16.5C 88.5416,16.0472 87.7083,15.3805 87,14.5C 86.6667,15.1667 86.3333,15.8333 86,16.5C 85.3292,15.7476 84.4959,15.4142 83.5,15.5C 82.1667,14.5 80.8333,13.5 79.5,12.5C 78.6935,11.2719 77.6935,10.2719 76.5,9.5C 77.2223,8.44886 78.2223,7.78219 79.5,7.5 Z"/></g>
<g><path style="opacity:1" fill="#2c4c72" d="M 14.5,10.5 C 13.5254,12.7952 12.1921,14.7952 10.5,16.5C 9.76109,16.369 9.09442,16.5357 8.5,17C 11.9913,17.738 15.3246,18.5713 18.5,19.5C 16.5992,19.4332 14.7659,19.7665 13,20.5C 10.9534,19.3906 8.78672,18.7239 6.5,18.5C 6.55688,17.391 6.89022,16.391 7.5,15.5C 9.29645,13.1 11.6298,11.4333 14.5,10.5 Z"/></g>
<g><path style="opacity:1" fill="#407cb4" d="M 29.5,10.5 C 29.8333,10.5 30.1667,10.5 30.5,10.5C 29.7101,11.7942 28.7101,12.9609 27.5,14C 22.9555,15.5423 18.2888,16.3757 13.5,16.5C 18.8863,14.813 24.2197,12.813 29.5,10.5 Z"/></g>
<g><path style="opacity:1" fill="#f4f6f7" d="M 35.5,13.5 C 35.6107,14.1174 35.944,14.6174 36.5,15C 38.8098,15.4966 41.1432,15.6633 43.5,15.5C 45.1172,16.038 46.7839,16.3713 48.5,16.5C 44.6607,17.0409 40.8274,18.0409 37,19.5C 35.2477,18.5945 33.4144,17.5945 31.5,16.5C 32.5884,15.0656 33.9217,14.0656 35.5,13.5 Z"/></g>
<g><path style="opacity:1" fill="#7594ad" d="M 35.5,12.5 C 38.1631,13.7521 40.8298,14.7521 43.5,15.5C 41.1432,15.6633 38.8098,15.4966 36.5,15C 35.944,14.6174 35.6107,14.1174 35.5,13.5C 35.5,13.1667 35.5,12.8333 35.5,12.5 Z"/></g>
<g><path style="opacity:1" fill="#b3b4b6" d="M 15.5,5.5 C 16.2389,5.36899 16.9056,5.53566 17.5,6C 12.6156,8.22003 8.28224,11.22 4.5,15C 5.44802,15.4828 6.44802,15.6495 7.5,15.5C 6.89022,16.391 6.55688,17.391 6.5,18.5C 5.83333,18.5 5.5,18.8333 5.5,19.5C 3.83056,18.1103 2.16389,17.7769 0.5,18.5C 3.30418,11.6997 8.30418,7.36636 15.5,5.5 Z"/></g>
<g><path style="opacity:1" fill="#e5e8ed" d="M 33.5,5.5 C 33.5,5.83333 33.5,6.16667 33.5,6.5C 34.3627,8.42136 35.0293,10.4214 35.5,12.5C 35.5,12.8333 35.5,13.1667 35.5,13.5C 33.9217,14.0656 32.5884,15.0656 31.5,16.5C 33.4144,17.5945 35.2477,18.5945 37,19.5C 40.8274,18.0409 44.6607,17.0409 48.5,16.5C 49.1667,16.5 49.8333,16.5 50.5,16.5C 51.8333,16.5 53.1667,16.5 54.5,16.5C 54.5,17.1667 54.5,17.8333 54.5,18.5C 53.8333,18.5 53.1667,18.5 52.5,18.5C 48.8776,18.322 45.5443,18.9886 42.5,20.5C 41.8333,20.5 41.1667,20.5 40.5,20.5C 37.1441,19.8622 35.1441,21.1956 34.5,24.5C 33.1667,24.1667 31.8333,23.8333 30.5,23.5C 30.1667,22.8333 29.8333,22.1667 29.5,21.5C 30.8598,17.753 31.1932,14.0863 30.5,10.5C 30.2591,7.96644 31.2591,6.29977 33.5,5.5 Z"/></g>
<g><path style="opacity:1" fill="#6e85a4" d="M 54.5,16.5 C 55.8333,16.5 57.1667,16.5 58.5,16.5C 59.1667,17.1667 59.8333,17.8333 60.5,18.5C 58.5,18.5 56.5,18.5 54.5,18.5C 54.5,17.8333 54.5,17.1667 54.5,16.5 Z"/></g>
<g><path style="opacity:1" fill="#bccde3" d="M 68.5,10.5 C 69.4345,11.5676 69.7678,12.901 69.5,14.5C 65.8861,16.7025 65.8861,18.7025 69.5,20.5C 69.631,21.2389 69.4643,21.9056 69,22.5C 67.871,20.8588 66.371,19.8588 64.5,19.5C 63.2921,18.7659 61.9587,18.4326 60.5,18.5C 59.8333,17.8333 59.1667,17.1667 58.5,16.5C 60.4147,16.7845 62.0813,16.4511 63.5,15.5C 66.659,15.4296 68.3257,13.763 68.5,10.5 Z"/></g>
<g><path style="opacity:1" fill="#d9d9dc" d="M 69.5,14.5 C 69.8417,15.3382 70.5084,15.6716 71.5,15.5C 72.209,16.404 73.209,16.7373 74.5,16.5C 74.5,17.1667 74.5,17.8333 74.5,18.5C 72.4471,18.4021 70.7804,19.0687 69.5,20.5C 65.8861,18.7025 65.8861,16.7025 69.5,14.5 Z"/></g>
<g><path style="opacity:1" fill="#203352" d="M 79.5,12.5 C 80.8333,13.5 82.1667,14.5 83.5,15.5C 85.7261,19.654 86.0595,23.9873 84.5,28.5C 83.7281,29.6935 82.7281,30.6935 81.5,31.5C 80.8115,26.6604 79.1448,26.3271 76.5,30.5C 75.8933,30.3764 75.56,30.0431 75.5,29.5C 76.8541,27.3041 78.8541,25.8041 81.5,25C 79.563,24.8784 78.2297,24.045 77.5,22.5C 81.909,23.101 83.2424,21.4343 81.5,17.5C 80.5832,18.1272 79.5832,18.4606 78.5,18.5C 77.8166,16.8235 76.4832,16.1568 74.5,16.5C 73.209,16.7373 72.209,16.404 71.5,15.5C 74.1667,15.5 76.8333,15.5 79.5,15.5C 79.5,14.5 79.5,13.5 79.5,12.5 Z"/></g>
<g><path style="opacity:1" fill="#eaf4f8" d="M 30.5,10.5 C 31.1932,14.0863 30.8598,17.753 29.5,21.5C 29.1667,21.5 28.8333,21.5 28.5,21.5C 26.8984,19.9261 24.8984,19.2594 22.5,19.5C 21.1667,19.5 19.8333,19.5 18.5,19.5C 15.3246,18.5713 11.9913,17.738 8.5,17C 9.09442,16.5357 9.76109,16.369 10.5,16.5C 11.5,16.5 12.5,16.5 13.5,16.5C 18.2888,16.3757 22.9555,15.5423 27.5,14C 28.7101,12.9609 29.7101,11.7942 30.5,10.5 Z"/></g>
<g><path style="opacity:1" fill="#768795" d="M 74.5,16.5 C 76.4832,16.1568 77.8166,16.8235 78.5,18.5C 77.5,18.5 76.5,18.5 75.5,18.5C 75.1667,18.5 74.8333,18.5 74.5,18.5C 74.5,17.8333 74.5,17.1667 74.5,16.5 Z"/></g>
<g><path style="opacity:1" fill="#1b3366" d="M 77.5,22.5 C 76.1687,19.9511 75.1687,20.2845 74.5,23.5C 73.5,23.5 72.5,23.5 71.5,23.5C 71.4078,20.6 72.7411,18.9333 75.5,18.5C 76.5,18.5 77.5,18.5 78.5,18.5C 79.5832,18.4606 80.5832,18.1272 81.5,17.5C 83.2424,21.4343 81.909,23.101 77.5,22.5 Z"/></g>
<g><path style="opacity:1" fill="#6f7178" d="M 89.5,16.5 C 90.1667,17.5 90.8333,18.5 91.5,19.5C 91.5,21.5 91.5,23.5 91.5,25.5C 90.8333,26.5 90.1667,27.5 89.5,28.5C 88.0267,29.0715 86.36,29.0715 84.5,28.5C 86.0595,23.9873 85.7261,19.654 83.5,15.5C 84.4959,15.4142 85.3292,15.7476 86,16.5C 86.3333,15.8333 86.6667,15.1667 87,14.5C 87.7083,15.3805 88.5416,16.0472 89.5,16.5 Z"/></g>
<g><path style="opacity:1" fill="#315779" d="M 52.5,18.5 C 52.5,18.8333 52.5,19.1667 52.5,19.5C 49.3752,20.4794 46.0419,20.8128 42.5,20.5C 45.5443,18.9886 48.8776,18.322 52.5,18.5 Z"/></g>
<g><path style="opacity:1" fill="#718490" d="M 22.5,19.5 C 24.8984,19.2594 26.8984,19.9261 28.5,21.5C 26.1016,21.7406 24.1016,21.0739 22.5,19.5 Z"/></g>
<g><path style="opacity:1" fill="#16518f" d="M 52.5,19.5 C 53.8333,19.5 55.1667,19.5 56.5,19.5C 56.5,20.8333 56.5,22.1667 56.5,23.5C 53.9455,24.388 51.2788,24.7214 48.5,24.5C 48.5,23.5 48.5,22.5 48.5,21.5C 45.0172,20.9159 42.0172,21.7492 39.5,24C 41.689,24.677 42.0224,25.8437 40.5,27.5C 41.6888,28.4287 43.0222,28.762 44.5,28.5C 44.4894,30.0174 43.8228,31.1841 42.5,32C 40.5273,32.4955 38.5273,32.6621 36.5,32.5C 35.8333,32.5 35.1667,32.5 34.5,32.5C 34.9072,27.6856 36.9072,23.6856 40.5,20.5C 41.1667,20.5 41.8333,20.5 42.5,20.5C 46.0419,20.8128 49.3752,20.4794 52.5,19.5 Z"/></g>
<g><path style="opacity:1" fill="#68696f" d="M 5.5,19.5 C 5.5,21.1667 5.5,22.8333 5.5,24.5C 4.77842,24.0825 4.27842,23.4158 4,22.5C 3.27985,24.0557 2.11318,25.0557 0.5,25.5C 0.166667,25.5 -0.166667,25.5 -0.5,25.5C -0.5,23.8333 -0.5,22.1667 -0.5,20.5C 0.338246,20.1583 0.67158,19.4916 0.5,18.5C 2.16389,17.7769 3.83056,18.1103 5.5,19.5 Z"/></g>
<g><path style="opacity:1" fill="#0f457e" d="M 52.5,19.5 C 52.5,19.1667 52.5,18.8333 52.5,18.5C 53.1667,18.5 53.8333,18.5 54.5,18.5C 56.5,18.5 58.5,18.5 60.5,18.5C 61.9587,18.4326 63.2921,18.7659 64.5,19.5C 65.9418,20.8195 66.6085,22.4862 66.5,24.5C 62.0053,24.6959 58.672,23.0292 56.5,19.5C 55.1667,19.5 53.8333,19.5 52.5,19.5 Z"/></g>
<g><path style="opacity:1" fill="#2c5986" d="M 18.5,19.5 C 19.8333,19.5 21.1667,19.5 22.5,19.5C 24.1016,21.0739 26.1016,21.7406 28.5,21.5C 28.8333,21.5 29.1667,21.5 29.5,21.5C 29.8333,22.1667 30.1667,22.8333 30.5,23.5C 31.3007,25.0418 31.634,26.7085 31.5,28.5C 30.8333,27.8333 30.1667,27.1667 29.5,26.5C 29.1961,25.8501 28.8627,25.1835 28.5,24.5C 24.9772,23.8654 21.6439,22.8654 18.5,21.5C 18.5,20.8333 18.5,20.1667 18.5,19.5 Z"/></g>
<g><path style="opacity:1" fill="#0b5098" d="M 48.5,24.5 C 48.8333,25.5 49.5,26.1667 50.5,26.5C 52.3779,27.2076 54.0445,28.3743 55.5,30C 52.5184,30.498 49.5184,30.6646 46.5,30.5C 46.719,29.325 46.3857,28.325 45.5,27.5C 44.8933,27.6236 44.56,27.9569 44.5,28.5C 43.0222,28.762 41.6888,28.4287 40.5,27.5C 42.0224,25.8437 41.689,24.677 39.5,24C 42.0172,21.7492 45.0172,20.9159 48.5,21.5C 48.5,22.5 48.5,23.5 48.5,24.5 Z"/></g>
<g><path style="opacity:1" fill="#304b69" d="M 40.5,20.5 C 36.9072,23.6856 34.9072,27.6856 34.5,32.5C 34.5,33.1667 34.5,33.8333 34.5,34.5C 32.5544,33.9653 31.5544,32.632 31.5,30.5C 32.1174,30.6107 32.6174,30.944 33,31.5C 33.662,29.1873 34.162,26.854 34.5,24.5C 35.1441,21.1956 37.1441,19.8622 40.5,20.5 Z"/></g>
<g><path style="opacity:1" fill="#2c4364" d="M 74.5,18.5 C 74.8333,18.5 75.1667,18.5 75.5,18.5C 72.7411,18.9333 71.4078,20.6 71.5,23.5C 72.5,23.5 73.5,23.5 74.5,23.5C 72.7354,24.4614 70.7354,24.7947 68.5,24.5C 67.8333,24.5 67.1667,24.5 66.5,24.5C 66.6085,22.4862 65.9418,20.8195 64.5,19.5C 66.371,19.8588 67.871,20.8588 69,22.5C 69.4643,21.9056 69.631,21.2389 69.5,20.5C 70.7804,19.0687 72.4471,18.4021 74.5,18.5 Z"/></g>
<g><path style="opacity:1" fill="#c6cad4" d="M 77.5,22.5 C 78.2297,24.045 79.563,24.8784 81.5,25C 78.8541,25.8041 76.8541,27.3041 75.5,29.5C 75.5858,28.5041 75.2524,27.6708 74.5,27C 72.4817,26.4954 70.4817,25.9954 68.5,25.5C 68.5,25.1667 68.5,24.8333 68.5,24.5C 70.7354,24.7947 72.7354,24.4614 74.5,23.5C 75.1687,20.2845 76.1687,19.9511 77.5,22.5 Z"/></g>
<g><path style="opacity:1" fill="#afabaf" d="M 30.5,23.5 C 31.8333,23.8333 33.1667,24.1667 34.5,24.5C 34.162,26.854 33.662,29.1873 33,31.5C 32.6174,30.944 32.1174,30.6107 31.5,30.5C 31.5,29.8333 31.5,29.1667 31.5,28.5C 31.634,26.7085 31.3007,25.0418 30.5,23.5 Z"/></g>
<g><path style="opacity:1" fill="#9eb0c5" d="M 56.5,19.5 C 58.672,23.0292 62.0053,24.6959 66.5,24.5C 67.1667,24.5 67.8333,24.5 68.5,24.5C 68.5,24.8333 68.5,25.1667 68.5,25.5C 65.7628,25.4013 63.0961,25.7347 60.5,26.5C 59.9653,24.5544 58.632,23.5544 56.5,23.5C 56.5,22.1667 56.5,20.8333 56.5,19.5 Z"/></g>
<g><path style="opacity:1" fill="#89898d" d="M 5.5,24.5 C 5.43255,25.9587 5.76589,27.2921 6.5,28.5C 5.16667,29.1667 3.83333,29.8333 2.5,30.5C 1.06873,29.2196 0.402065,27.5529 0.5,25.5C 2.11318,25.0557 3.27985,24.0557 4,22.5C 4.27842,23.4158 4.77842,24.0825 5.5,24.5 Z"/></g>
<g><path style="opacity:1" fill="#064a89" d="M 6.5,18.5 C 8.78672,18.7239 10.9534,19.3906 13,20.5C 14.7659,19.7665 16.5992,19.4332 18.5,19.5C 18.5,20.1667 18.5,20.8333 18.5,21.5C 15.091,21.7507 11.7577,21.4173 8.5,20.5C 8.16667,21 7.83333,21.5 7.5,22C 8.87707,24.5898 10.3771,27.0898 12,29.5C 12.3076,28.6919 12.8076,28.0253 13.5,27.5C 14.4287,28.6888 14.762,30.0222 14.5,31.5C 13.2921,30.7659 11.9587,30.4326 10.5,30.5C 7.35525,27.3152 6.02191,23.3152 6.5,18.5 Z"/></g>
<g><path style="opacity:1" fill="#024f98" d="M 18.5,21.5 C 21.6439,22.8654 24.9772,23.8654 28.5,24.5C 28.8627,25.1835 29.1961,25.8501 29.5,26.5C 29.5,28.5 29.5,30.5 29.5,32.5C 24.3054,32.8205 19.3054,32.4872 14.5,31.5C 14.762,30.0222 14.4287,28.6888 13.5,27.5C 12.8076,28.0253 12.3076,28.6919 12,29.5C 10.3771,27.0898 8.87707,24.5898 7.5,22C 7.83333,21.5 8.16667,21 8.5,20.5C 11.7577,21.4173 15.091,21.7507 18.5,21.5 Z"/></g>
<g><path style="opacity:1" fill="#d1d6e4" d="M 56.5,23.5 C 58.632,23.5544 59.9653,24.5544 60.5,26.5C 59.0337,27.347 58.2004,28.6803 58,30.5C 56.4612,27.4792 53.9612,26.1459 50.5,26.5C 49.5,26.1667 48.8333,25.5 48.5,24.5C 51.2788,24.7214 53.9455,24.388 56.5,23.5 Z"/></g>
<g><path style="opacity:1" fill="#2f4a72" d="M 68.5,25.5 C 70.4817,25.9954 72.4817,26.4954 74.5,27C 75.2524,27.6708 75.5858,28.5041 75.5,29.5C 69.8834,26.5028 64.5501,27.0028 59.5,31C 60.7375,31.2321 61.7375,31.7321 62.5,32.5C 61.1266,32.3433 59.7932,32.51 58.5,33C 59.4158,33.2784 60.0825,33.7784 60.5,34.5C 60.1667,34.5 59.8333,34.5 59.5,34.5C 57.8333,34.5 56.1667,34.5 54.5,34.5C 51.8333,33.1667 49.1667,31.8333 46.5,30.5C 49.5184,30.6646 52.5184,30.498 55.5,30C 54.0445,28.3743 52.3779,27.2076 50.5,26.5C 53.9612,26.1459 56.4612,27.4792 58,30.5C 58.2004,28.6803 59.0337,27.347 60.5,26.5C 63.0961,25.7347 65.7628,25.4013 68.5,25.5 Z"/></g>
<g><path style="opacity:1" fill="#193361" d="M 75.5,29.5 C 75.56,30.0431 75.8933,30.3764 76.5,30.5C 79.1448,26.3271 80.8115,26.6604 81.5,31.5C 81.1667,31.5 80.8333,31.5 80.5,31.5C 78.5082,31.3285 76.8415,31.9951 75.5,33.5C 74.5832,32.8728 73.5832,32.5394 72.5,32.5C 71.1667,32.5 69.8333,32.5 68.5,32.5C 66.2239,32.2435 65.0572,30.9102 65,28.5C 64.7996,30.3197 63.9663,31.653 62.5,32.5C 61.7375,31.7321 60.7375,31.2321 59.5,31C 64.5501,27.0028 69.8834,26.5028 75.5,29.5 Z"/></g>
<g><path style="opacity:1" fill="#b4b7bd" d="M 6.5,28.5 C 9.95622,32.2982 13.9562,35.2982 18.5,37.5C 17.448,37.3505 16.448,37.5172 15.5,38C 16.8333,38.6667 18.1667,39.3333 19.5,40C 19.2716,40.3988 18.9382,40.5654 18.5,40.5C 11.8564,39.1825 6.52311,35.8491 2.5,30.5C 3.83333,29.8333 5.16667,29.1667 6.5,28.5 Z"/></g>
<g><path style="opacity:1" fill="#d7e1e7" d="M 46.5,30.5 C 49.1667,31.8333 51.8333,33.1667 54.5,34.5C 54.1667,34.5 53.8333,34.5 53.5,34.5C 50.2447,34.0136 47.578,35.0136 45.5,37.5C 44.2742,35.7221 42.6075,34.7221 40.5,34.5C 39.1667,33.8333 37.8333,33.1667 36.5,32.5C 38.5273,32.6621 40.5273,32.4955 42.5,32C 43.8228,31.1841 44.4894,30.0174 44.5,28.5C 44.56,27.9569 44.8933,27.6236 45.5,27.5C 46.3857,28.325 46.719,29.325 46.5,30.5 Z"/></g>
<g><path style="opacity:1" fill="#d0dbe3" d="M 68.5,32.5 C 68.5,33.1667 68.5,33.8333 68.5,34.5C 66.9256,34.9371 65.7589,35.9371 65,37.5C 64.4115,35.1367 62.9115,34.1367 60.5,34.5C 60.0825,33.7784 59.4158,33.2784 58.5,33C 59.7932,32.51 61.1266,32.3433 62.5,32.5C 63.9663,31.653 64.7996,30.3197 65,28.5C 65.0572,30.9102 66.2239,32.2435 68.5,32.5 Z"/></g>
<g><path style="opacity:1" fill="#0c437f" d="M 29.5,26.5 C 30.1667,27.1667 30.8333,27.8333 31.5,28.5C 31.5,29.1667 31.5,29.8333 31.5,30.5C 31.5544,32.632 32.5544,33.9653 34.5,34.5C 34.5,35.1667 34.8333,35.5 35.5,35.5C 35.3893,36.1174 35.056,36.6174 34.5,37C 30.8484,37.4986 27.1817,37.6653 23.5,37.5C 23.0618,37.5654 22.7284,37.3988 22.5,37C 23.3081,36.6924 23.9747,36.1924 24.5,35.5C 21.2152,34.6764 17.8818,34.1764 14.5,34C 13.2695,32.5952 11.9361,31.4286 10.5,30.5C 11.9587,30.4326 13.2921,30.7659 14.5,31.5C 19.3054,32.4872 24.3054,32.8205 29.5,32.5C 29.5,30.5 29.5,28.5 29.5,26.5 Z"/></g>
<g><path style="opacity:1" fill="#7b8da5" d="M 34.5,32.5 C 35.1667,32.5 35.8333,32.5 36.5,32.5C 37.8333,33.1667 39.1667,33.8333 40.5,34.5C 38.5,34.5 36.5,34.5 34.5,34.5C 34.5,33.8333 34.5,33.1667 34.5,32.5 Z"/></g>
<g><path style="opacity:1" fill="#707a91" d="M 68.5,32.5 C 69.8333,32.5 71.1667,32.5 72.5,32.5C 71.8166,34.1765 70.4832,34.8432 68.5,34.5C 68.5,33.8333 68.5,33.1667 68.5,32.5 Z"/></g>
<g><path style="opacity:1" fill="#223150" d="M 80.5,31.5 C 80.5,31.8333 80.5,32.1667 80.5,32.5C 74.0236,37.2938 66.6903,39.9605 58.5,40.5C 58.1667,40.5 57.8333,40.5 57.5,40.5C 58.4558,39.3406 59.4558,38.1739 60.5,37C 60.2568,36.0979 59.9234,35.2646 59.5,34.5C 59.8333,34.5 60.1667,34.5 60.5,34.5C 62.9115,34.1367 64.4115,35.1367 65,37.5C 65.7589,35.9371 66.9256,34.9371 68.5,34.5C 70.4832,34.8432 71.8166,34.1765 72.5,32.5C 73.5832,32.5394 74.5832,32.8728 75.5,33.5C 76.8415,31.9951 78.5082,31.3285 80.5,31.5 Z"/></g>
<g><path style="opacity:0.647" fill="#a9aaaa" d="M 84.5,28.5 C 86.36,29.0715 88.0267,29.0715 89.5,28.5C 87.0362,33.6268 83.0362,36.9601 77.5,38.5C 76.2617,38.19 76.2617,37.69 77.5,37C 79.8442,36.1628 81.8442,34.8294 83.5,33C 82.552,32.5172 81.552,32.3505 80.5,32.5C 80.5,32.1667 80.5,31.8333 80.5,31.5C 80.8333,31.5 81.1667,31.5 81.5,31.5C 82.7281,30.6935 83.7281,29.6935 84.5,28.5 Z"/></g>
<g><path style="opacity:1" fill="#254673" d="M 6.5,18.5 C 6.02191,23.3152 7.35525,27.3152 10.5,30.5C 11.9361,31.4286 13.2695,32.5952 14.5,34C 17.8818,34.1764 21.2152,34.6764 24.5,35.5C 23.9747,36.1924 23.3081,36.6924 22.5,37C 22.7284,37.3988 23.0618,37.5654 23.5,37.5C 24.5,38.1667 25.5,38.8333 26.5,39.5C 23.6592,39.4403 20.9925,38.7736 18.5,37.5C 13.9562,35.2982 9.95622,32.2982 6.5,28.5C 5.76589,27.2921 5.43255,25.9587 5.5,24.5C 5.5,22.8333 5.5,21.1667 5.5,19.5C 5.5,18.8333 5.83333,18.5 6.5,18.5 Z"/></g>
<g><path style="opacity:1" fill="#153a71" d="M 35.5,35.5 C 37.7638,36.2186 40.0971,36.552 42.5,36.5C 42.5,37.5 42.5,38.5 42.5,39.5C 38.5341,40.1621 34.5341,40.4955 30.5,40.5C 29.0413,40.5674 27.7079,40.2341 26.5,39.5C 25.5,38.8333 24.5,38.1667 23.5,37.5C 27.1817,37.6653 30.8484,37.4986 34.5,37C 35.056,36.6174 35.3893,36.1174 35.5,35.5 Z"/></g>
<g><path style="opacity:1" fill="#133167" d="M 53.5,34.5 C 53.8333,34.5 54.1667,34.5 54.5,34.5C 56.1667,34.5 57.8333,34.5 59.5,34.5C 59.9234,35.2646 60.2568,36.0979 60.5,37C 59.4558,38.1739 58.4558,39.3406 57.5,40.5C 49.29,41.6937 47.9567,39.6937 53.5,34.5 Z"/></g>
<g><path style="opacity:1" fill="#2d4365" d="M 34.5,34.5 C 36.5,34.5 38.5,34.5 40.5,34.5C 42.6075,34.7221 44.2742,35.7221 45.5,37.5C 47.578,35.0136 50.2447,34.0136 53.5,34.5C 47.9567,39.6937 49.29,41.6937 57.5,40.5C 57.8333,40.5 58.1667,40.5 58.5,40.5C 58.5,40.8333 58.5,41.1667 58.5,41.5C 49.8333,41.5 41.1667,41.5 32.5,41.5C 31.5084,41.6716 30.8417,41.3382 30.5,40.5C 34.5341,40.4955 38.5341,40.1621 42.5,39.5C 42.5,38.5 42.5,37.5 42.5,36.5C 40.0971,36.552 37.7638,36.2186 35.5,35.5C 34.8333,35.5 34.5,35.1667 34.5,34.5 Z"/></g>
<g><path style="opacity:1" fill="#c7ccd1" d="M 80.5,32.5 C 81.552,32.3505 82.552,32.5172 83.5,33C 81.8442,34.8294 79.8442,36.1628 77.5,37C 76.2617,37.69 76.2617,38.19 77.5,38.5C 73.0861,41.5271 68.0861,43.1937 62.5,43.5C 61.448,43.6495 60.448,43.4828 59.5,43C 64.5409,41.9924 64.2076,41.4924 58.5,41.5C 58.5,41.1667 58.5,40.8333 58.5,40.5C 66.6903,39.9605 74.0236,37.2938 80.5,32.5 Z"/></g>
<g><path style="opacity:1" fill="#c2c7ca" d="M 18.5,37.5 C 20.9925,38.7736 23.6592,39.4403 26.5,39.5C 27.7079,40.2341 29.0413,40.5674 30.5,40.5C 30.8417,41.3382 31.5084,41.6716 32.5,41.5C 32.6107,42.1174 32.944,42.6174 33.5,43C 36.1667,43.3333 38.8333,43.6667 41.5,44C 40.2068,44.49 38.8734,44.6567 37.5,44.5C 30.6833,44.8748 24.35,43.5415 18.5,40.5C 18.9382,40.5654 19.2716,40.3988 19.5,40C 18.1667,39.3333 16.8333,38.6667 15.5,38C 16.448,37.5172 17.448,37.3505 18.5,37.5 Z"/></g>
<g><path style="opacity:0.816" fill="#ccd0d5" d="M 32.5,41.5 C 41.1667,41.5 49.8333,41.5 58.5,41.5C 64.2076,41.4924 64.5409,41.9924 59.5,43C 60.448,43.4828 61.448,43.6495 62.5,43.5C 59.5,44.1667 56.5,44.8333 53.5,45.5C 48.1667,45.5 42.8333,45.5 37.5,45.5C 37.5,45.1667 37.5,44.8333 37.5,44.5C 38.8734,44.6567 40.2068,44.49 41.5,44C 38.8333,43.6667 36.1667,43.3333 33.5,43C 32.944,42.6174 32.6107,42.1174 32.5,41.5 Z"/></g>
</svg>
