<?xml version="1.0" standalone="no"?><!DOCTYPE svg PUBLIC "-//W3C//DTD SVG 1.1//EN" "http://www.w3.org/Graphics/SVG/1.1/DTD/svg11.dtd"><svg t="1742785144668" class="icon" viewBox="0 0 1024 1024" version="1.1" xmlns="http://www.w3.org/2000/svg" p-id="8698" xmlns:xlink="http://www.w3.org/1999/xlink" width="256" height="256"><path d="M512.4096 102.4c172.8512 0 325.888 102.912 389.2992 256.2304a76.8 76.8 0 0 1 70.9632 72.064L972.8 435.2v179.2a76.8 76.8 0 0 1-72.2944 76.672L896 691.2h-6.0672c-66.0224 132.3264-200.2176 220.8-352.3072 229.6576L537.6 921.6h-102.4v-0.8448a83.2512 83.2512 0 0 1-23.2704-5.5552c-48.896-19.2-78.6176-55.04-68.352-96.2048 10.24-41.1392 57.4976-64.8192 105.4976-52.8384 48.0256 11.9808 78.6432 55.04 68.352 96.2048l-1.1264 4.0448-1.3824 3.968 6.5792-0.0768c130.1248-3.072 246.7072-72.2944 310.144-179.072L819.2 691.2a51.2 51.2 0 0 1-51.072-47.36L768 640v-230.4a51.2 51.2 0 0 1 47.36-51.072L819.2 358.4h26.2912C785.408 235.2128 656.896 153.6 512.4096 153.6c-144.6912 0-273.152 81.792-333.1328 204.8H204.8a51.2 51.2 0 0 1 51.2 51.2v230.4a51.2 51.2 0 0 1-51.2 51.2H128a76.8 76.8 0 0 1-76.8-76.8v-179.2a76.8 76.8 0 0 1 71.9104-76.6464C186.368 205.5936 339.3024 102.4 512.4096 102.4zM393.216 831.3856c-2.944 11.8784 8.96 28.6208 31.0784 34.1248 22.1184 5.5296 40.4992-3.6608 43.4432-15.5392 2.9696-11.8784-8.9344-28.6208-31.0528-34.1248-22.144-5.5296-40.4992 3.6608-43.4688 15.5392z m257.3312-253.0304l46.1568 22.144A204.8 204.8 0 0 1 512 716.8a204.8 204.8 0 0 1-183.68-114.1248l45.9008-22.7072A153.6 153.6 0 0 0 512 665.6a153.6 153.6 0 0 0 138.5728-87.2448zM204.8 409.6H128a25.6 25.6 0 0 0-25.6 25.6v179.2a25.6 25.6 0 0 0 25.6 25.6h76.8v-230.4z m691.2 0h-76.8v230.4h76.8a25.6 25.6 0 0 0 25.4208-22.6048L921.6 614.4v-179.2a25.6 25.6 0 0 0-25.6-25.6z" fill="#2c2c2c" p-id="8699"></path></svg>