<?xml version="1.0" standalone="no"?><!DOCTYPE svg PUBLIC "-//W3C//DTD SVG 1.1//EN" "http://www.w3.org/Graphics/SVG/1.1/DTD/svg11.dtd"><svg t="1742884635333" class="icon" viewBox="0 0 1024 1024" version="1.1" xmlns="http://www.w3.org/2000/svg" p-id="10301" xmlns:xlink="http://www.w3.org/1999/xlink" width="256" height="256"><path d="M520.3968 447.7952l135.2704-180.3776c10.5984-14.6432 28.1088-15.0016 39.0656-0.8704a46.08 46.08 0 0 1 0 52.9408l-96.3072 128.3072h14.6944c14.4384 0 26.1632 17.4592 26.1632 39.0144s-11.7248 38.9632-26.1632 38.9632H511.488v99.6352h101.632c14.4384 0 26.1632 17.5104 26.1632 38.9632s-11.7248 38.9632-26.1632 38.9632H511.488v36.608c0 15.104-14.2848 27.2896-31.9488 27.2896s-31.8976-12.1856-31.8976-27.2896v-36.608H345.9584c-14.3872 0-26.112-17.408-26.112-38.9632s11.7248-38.9632 26.112-38.9632h101.6832v-99.6352H345.9584c-14.3872 0-26.112-17.5616-26.112-38.9632s11.7248-39.0144 26.112-39.0144h14.6432L264.3968 319.4368a46.08 46.08 0 0 1-0.6144-52.0192c10.5472-14.6432 28.0064-15.0016 38.9632-0.8704l0.7168 0.8704 135.2704 180.3776h81.92zM0.4608 410.2656a37.2224 37.2224 0 0 1 2.9696-16.64C52.3776 165.0688 250.88 0.6656 480 0.6656 711.68 0.6656 911.36 167.8336 957.952 400.7936a35.84 35.84 0 0 1-26.88 41.9328 34.9184 34.9184 0 0 1-26.2144-5.12 34.4064 34.4064 0 0 1-14.592-22.4256C849.92 215.04 678.8096 71.68 480 71.68c-175.0528 0-329.1648 111.7696-390.6048 274.432L143.36 323.072a36.7616 36.7616 0 0 1 48.1792 18.944 36.4032 36.4032 0 0 1-19.2512 47.9232l-114.2784 48.7936a33.6896 33.6896 0 0 1-22.9888 9.0624A34.9696 34.9696 0 0 1 0.512 410.2656z m950.7328 177.664a36.6592 36.6592 0 0 1 70.7072 18.3296 38.1952 38.1952 0 0 1-6.4512 28.7232c-57.5488 226.4576-264.0896 387.7888-501.76 387.7888a517.12 517.12 0 0 1-506.88-410.7776 36.608 36.608 0 0 1 71.68-14.6432 445.1328 445.1328 0 0 0 843.776 84.6336l-40.96 18.2784a34.048 34.048 0 0 1-14.2336 3.072 36.7104 36.7104 0 0 1-36.1472-37.2736 37.3248 37.3248 0 0 1 21.8112-34.304l98.5088-43.8272z m0 0" p-id="10302" fill="#ffffff"></path></svg>