<?xml version="1.0" standalone="no"?><!DOCTYPE svg PUBLIC "-//W3C//DTD SVG 1.1//EN" "http://www.w3.org/Graphics/SVG/1.1/DTD/svg11.dtd"><svg t="1775462734082" class="icon" viewBox="0 0 1024 1024" version="1.1" xmlns="http://www.w3.org/2000/svg" p-id="4299" xmlns:xlink="http://www.w3.org/1999/xlink" width="256" height="256"><path d="M733.248 316.544A224.128 224.128 0 0 0 536.32 129.344l-12.096-1.024L512 128a224.064 224.064 0 0 0-218.88 176l-2.176 11.648-0.64 4.352H256l-10.496 0.32c-6.848 0.448-13.504 1.28-20.032 2.56a288 288 0 0 1 573.056 0.128 150.656 150.656 0 0 0-20.224-2.688L768 320h-34.368l-0.384-3.456z" fill="#989A9D" p-id="4300"></path><path d="M736 896a51.2 51.2 0 1 1 0 102.4 51.2 51.2 0 0 1 0-102.4z m32-576c47.04 0 90.816 20.48 120.96 55.296a32 32 0 1 1-48.384 41.92 95.68 95.68 0 0 0-63.232-32.768L768 384H256a96 96 0 0 0-95.552 86.784L160 480v384a32 32 0 0 0 26.24 31.488L192 896h320a32 32 0 0 1 5.76 63.488L512 960H192a96 96 0 0 1-95.552-86.784L96 864v-384a160 160 0 0 1 149.504-159.68L256 320h512z m-32 160A160 160 0 0 1 896 640c0 76.8-34.176 116.288-113.536 156.544-9.472 4.8-14.464 14.72-14.464 35.456a32 32 0 1 1-64 0c0-43.008 16.384-75.712 49.536-92.544C813.696 708.928 832 687.744 832 640a96 96 0 0 0-192 0 32 32 0 1 1-64 0 160 160 0 0 1 160-160z" fill="#63676B" p-id="4301"></path></svg>