<?xml version="1.0" encoding="UTF-8"?>
<!DOCTYPE svg PUBLIC "-//W3C//DTD SVG 1.1//EN" "http://www.w3.org/Graphics/SVG/1.1/DTD/svg11.dtd">
<svg xmlns="http://www.w3.org/2000/svg" version="1.1" width="2264px" height="2160px" style="shape-rendering:geometricPrecision; text-rendering:geometricPrecision; image-rendering:optimizeQuality; fill-rule:evenodd; clip-rule:evenodd" xmlns:xlink="http://www.w3.org/1999/xlink">
<g><path style="opacity:1" fill="#606266" d="M 529.5,11.5 C 541.686,10.3097 554.019,10.4764 566.5,12C 609.398,16.5386 651.731,24.2053 693.5,35C 836.63,74.0754 974.963,125.742 1108.5,190C 1159.62,212.538 1212.95,227.038 1268.5,233.5C 1259.16,191.809 1249.99,150.142 1241,108.5C 1411.93,183.836 1572.77,275.336 1723.5,383C 1820.07,452.837 1908.57,532.337 1989,621.5C 2044.95,684.392 2093.29,752.726 2134,826.5C 2164.09,882.345 2185.42,941.345 2198,1003.5C 2200.66,1024.57 2197.99,1044.9 2190,1064.5C 2176.67,1086.83 2166.34,1110.5 2159,1135.5C 2156.78,1142.86 2155.28,1150.36 2154.5,1158C 2159.67,1225.17 2164.83,1292.33 2170,1359.5C 2179.88,1415.28 2176.55,1470.28 2160,1524.5C 2145.99,1572.18 2124.32,1615.85 2095,1655.5C 2040.78,1726.06 1978.78,1789.06 1909,1844.5C 1911.5,1810.18 1914.17,1775.85 1917,1741.5C 1918.73,1725.53 1925.57,1712.36 1937.5,1702C 1954.66,1693.59 1971.66,1684.92 1988.5,1676C 1976.68,1671.62 1964.68,1667.62 1952.5,1664C 1917.26,1663.83 1882.1,1663.33 1847,1662.5C 1846.67,1662.83 1846.33,1663.17 1846,1663.5C 1828.62,1662.78 1811.29,1661.45 1794,1659.5C 1786.87,1659.68 1779.37,1660.85 1771.5,1663C 1766.79,1665.05 1762.62,1667.88 1759,1671.5C 1754.25,1682.01 1748.25,1691.67 1741,1700.5C 1710.51,1731.01 1677.67,1758.51 1642.5,1783C 1622.3,1796.7 1601.97,1810.2 1581.5,1823.5C 1581.17,1823 1580.83,1822.5 1580.5,1822C 1595.74,1761.22 1610.74,1700.39 1625.5,1639.5C 1630.16,1634.67 1634.66,1629.67 1639,1624.5C 1643.09,1617.32 1643.42,1609.99 1640,1602.5C 1630.43,1583.36 1617.93,1566.36 1602.5,1551.5C 1574.06,1573.77 1546.06,1596.6 1518.5,1620C 1504.01,1630.26 1495.18,1626.76 1492,1609.5C 1491.18,1570.54 1490.35,1531.38 1489.5,1492C 1490.05,1491.08 1490.71,1490.24 1491.5,1489.5C 1497.83,1486.67 1504.17,1483.83 1510.5,1481C 1512.59,1479.15 1513.59,1476.81 1513.5,1474C 1512.19,1463.07 1508.69,1452.9 1503,1443.5C 1494.96,1431.79 1485.79,1420.95 1475.5,1411C 1464.94,1401.81 1454.11,1392.97 1443,1384.5C 1442.87,1396.68 1444.37,1408.68 1447.5,1420.5C 1446.3,1429.07 1441.96,1435.57 1434.5,1440C 1418.33,1448.92 1401.99,1457.59 1385.5,1466C 1372.5,1470.76 1366,1466.26 1366,1452.5C 1363.1,1414.82 1360.1,1377.15 1357,1339.5C 1352.74,1325.9 1345.24,1314.4 1334.5,1305C 1311.16,1287.33 1285.16,1275 1256.5,1268C 1222.59,1258.76 1188.09,1253.26 1153,1251.5C 1139.42,1251.27 1126.26,1253.44 1113.5,1258C 1097.86,1268.64 1085.36,1282.14 1076,1298.5C 1059.59,1324.64 1045.26,1351.98 1033,1380.5C 1032.33,1386.83 1034,1392.5 1038,1397.5C 1041.56,1401.02 1045.39,1404.19 1049.5,1407C 1057.32,1410.74 1064.99,1414.74 1072.5,1419C 1076.97,1422.1 1078.47,1426.27 1077,1431.5C 1038.02,1457.18 1013.02,1492.85 1002,1538.5C 998.82,1552.16 1000.49,1565.16 1007,1577.5C 1009.87,1580.7 1013.04,1583.54 1016.5,1586C 1038.07,1597.23 1059.4,1608.9 1080.5,1621C 1058.06,1641.71 1035.06,1661.71 1011.5,1681C 1005.51,1686.65 1000.68,1693.15 997,1700.5C 995.632,1703.74 995.299,1707.07 996,1710.5C 999.612,1730.12 1002.95,1749.78 1006,1769.5C 1008.07,1786.14 1015.23,1799.97 1027.5,1811C 1030.62,1812.89 1033.95,1814.23 1037.5,1815C 1071.4,1814.69 1103.73,1807.35 1134.5,1793C 1175.72,1773.79 1211.22,1746.95 1241,1712.5C 1242.04,1713.62 1242.71,1714.96 1243,1716.5C 1246.39,1734.58 1244.72,1752.25 1238,1769.5C 1224.85,1801.94 1206.85,1831.28 1184,1857.5C 1179.51,1864.06 1178.51,1871.06 1181,1878.5C 1184.15,1881.67 1187.99,1883.5 1192.5,1884C 1243.46,1893.55 1294.46,1902.55 1345.5,1911C 1328.66,1900.75 1311.66,1890.75 1294.5,1881C 1283.57,1869.6 1276.41,1856.1 1273,1840.5C 1266.51,1814.55 1262.51,1788.22 1261,1761.5C 1256.12,1698.84 1259.12,1635.18 1270,1570.5C 1276.67,1532.8 1289,1497.14 1307,1463.5C 1315.1,1448.23 1325.93,1435.23 1339.5,1424.5C 1334.03,1441.85 1327.53,1459.18 1320,1476.5C 1316.37,1485.99 1318.54,1493.83 1326.5,1500C 1332.4,1503.64 1338.74,1506.3 1345.5,1508C 1311.89,1547.16 1296.39,1592.66 1299,1644.5C 1301.14,1658.31 1308.64,1667.81 1321.5,1673C 1328.6,1674.43 1335.26,1675.26 1341.5,1675.5C 1324.08,1705.75 1317.92,1738.09 1323,1772.5C 1329.58,1796.98 1339.91,1819.64 1354,1840.5C 1359.93,1847.43 1366.76,1853.26 1374.5,1858C 1388,1863.39 1401,1862.39 1413.5,1855C 1430.9,1844.53 1446.06,1831.36 1459,1815.5C 1469.16,1802.52 1478.82,1789.19 1488,1775.5C 1502.18,1872.65 1472.35,1953.15 1398.5,2017C 1350.91,2054.63 1297.91,2082.63 1239.5,2101C 1156.31,2125.92 1071.31,2140.59 984.5,2145C 857.882,2152.74 731.882,2145.41 606.5,2123C 582.43,2118.82 559.097,2112.15 536.5,2103C 587.767,2065.59 630.267,2020.09 664,1966.5C 716.586,1879.74 748.252,1785.74 759,1684.5C 768.693,1604.83 762.693,1525.83 741,1447.5C 721.241,1389.63 692.908,1336.63 656,1288.5C 601.864,1219.73 538.698,1160.9 466.5,1112C 390.929,1060.05 309.262,1020.05 221.5,992C 294.74,932.014 375.407,883.681 463.5,847C 641.492,776.918 818.825,778.585 995.5,852C 1081.97,889.031 1160.3,938.364 1230.5,1000C 1248.1,1016.42 1263.93,1034.26 1278,1053.5C 1282.11,1059.06 1285.11,1065.06 1287,1071.5C 1192.06,999.463 1085.9,951.296 968.5,927C 884.012,911.045 799.679,911.712 715.5,929C 678.782,938.03 644.782,953.03 613.5,974C 607.566,977.933 603.066,983.1 600,989.5C 598.503,996.503 601.17,1001.17 608,1003.5C 673.88,1071.35 730.546,1146.02 778,1227.5C 874.351,1408.65 897.018,1598.65 846,1797.5C 827.028,1867.76 798.028,1933.43 759,1994.5C 751.808,2011.9 755.641,2026.4 770.5,2038C 790.27,2051.15 811.937,2059.82 835.5,2064C 904.595,2069.42 973.595,2068.42 1042.5,2061C 1097.53,2054.99 1150.53,2041.33 1201.5,2020C 1223.32,2010.27 1243.65,1998.27 1262.5,1984C 1271.83,1976 1280.5,1967.33 1288.5,1958C 1218.7,1942.5 1148.54,1934.66 1078,1934.5C 1056.08,1935.37 1034.41,1938.37 1013,1943.5C 1000.08,1941.24 992.41,1933.58 990,1920.5C 944.162,1762.12 931.162,1601.12 951,1437.5C 962.223,1355.5 986.89,1277.83 1025,1204.5C 1034.99,1191.58 1047.82,1182.75 1063.5,1178C 1072,1175.47 1080.67,1173.81 1089.5,1173C 1106.89,1172.03 1124.22,1172.53 1141.5,1174.5C 1214.17,1174.57 1280.17,1197.4 1339.5,1243C 1363.5,1263 1387.5,1283 1411.5,1303C 1507.43,1388.26 1602.76,1474.26 1697.5,1561C 1733.6,1590.19 1774.26,1600.85 1819.5,1593C 1853.12,1584.13 1884.79,1570.8 1914.5,1553C 1919.33,1549.5 1923.5,1545.33 1927,1540.5C 1930.85,1533.63 1930.18,1527.29 1925,1521.5C 1890.15,1479.97 1853.81,1439.64 1816,1400.5C 1797.96,1380.13 1780.29,1359.46 1763,1338.5C 1755.28,1328.44 1747.94,1318.11 1741,1307.5C 1738.28,1302.73 1736.11,1297.73 1734.5,1292.5C 1734.53,1290.97 1735.2,1289.8 1736.5,1289C 1770.44,1303.21 1805.11,1315.87 1840.5,1327C 1920.07,1351.61 2001.4,1361.28 2084.5,1356C 2095.65,1355.23 2106.65,1353.57 2117.5,1351C 2116.07,1302.79 2104.24,1257.29 2082,1214.5C 2052.14,1162.67 2007.97,1129.83 1949.5,1116C 1892.09,1102.23 1834.42,1089.56 1776.5,1078C 1720.74,1067.01 1664.57,1059.51 1608,1055.5C 1595.04,1055.37 1581.87,1055.54 1568.5,1056C 1556.02,1056.6 1543.69,1058.27 1531.5,1061C 1524.75,1062.63 1518.58,1065.46 1513,1069.5C 1512.67,1086.5 1512.33,1103.5 1512,1120.5C 1460.55,1089.89 1414.21,1052.55 1373,1008.5C 1299.56,926.377 1239.56,835.043 1193,734.5C 1184.63,715.732 1176.47,696.899 1168.5,678C 1283.28,683.019 1384.28,722.352 1471.5,796C 1504.76,824.593 1537.43,853.926 1569.5,884C 1627.9,936.892 1694.56,976.559 1769.5,1003C 1843.59,1029.88 1919.09,1045.71 1996,1050.5C 2028.09,1049.24 2044.59,1032.58 2045.5,1000.5C 2042.7,970.939 2034.54,942.939 2021,916.5C 1958.56,783.164 1869.06,671.331 1752.5,581C 1657.57,508.342 1553.9,450.342 1441.5,407C 1350.19,371.338 1256.19,345.338 1159.5,329C 1065.5,278.334 969.498,231.334 871.5,188C 817.922,164.583 763.256,143.917 707.5,126C 693.588,121.855 679.588,118.022 665.5,114.5C 662.536,115.733 661.036,118.066 661,121.5C 660.918,135.765 662.918,149.765 667,163.5C 680.293,208.047 695.959,251.713 714,294.5C 732.308,338.123 750.974,381.457 770,424.5C 727.24,382.019 676.74,352.186 618.5,335C 551.427,316.259 483.094,308.926 413.5,313C 293.358,320.095 176.691,344.095 63.5,385C 55.4216,387.579 52.9216,385.079 56,377.5C 58.5,375 61,372.5 63.5,370C 148.34,319.376 237.34,277.376 330.5,244C 395.3,220.8 461.966,206.133 530.5,200C 545.212,199.184 559.878,199.35 574.5,200.5C 552.779,139.276 537.779,76.276 529.5,11.5 Z M 1326.5,199.5 C 1367.87,223.848 1407.53,250.681 1445.5,280C 1449.01,282.467 1451.18,285.634 1452,289.5C 1416.28,271.535 1379.11,257.202 1340.5,246.5C 1335.37,230.979 1330.7,215.312 1326.5,199.5 Z M 2099.5,1466.5 C 2100.81,1468.92 2101.48,1471.75 2101.5,1475C 2101.24,1484.04 2099.74,1492.87 2097,1501.5C 2088.26,1528.71 2078.93,1555.71 2069,1582.5C 2065.37,1592.28 2059.87,1600.78 2052.5,1608C 2050.42,1609.64 2048.09,1610.81 2045.5,1611.5C 2040.86,1608.69 2037.02,1605.02 2034,1600.5C 2027.58,1589.33 2020.92,1578.33 2014,1567.5C 2009.06,1560.38 2007.73,1552.71 2010,1544.5C 2011.12,1542.38 2012.62,1540.54 2014.5,1539C 2029.88,1531.28 2043.88,1521.62 2056.5,1510C 2071.7,1496.3 2086.04,1481.8 2099.5,1466.5 Z"/></g>
<g><path style="opacity:1" fill="#fe0000" d="M 1388.5,795.5 C 1390.88,795.784 1393.04,795.784 1395,795.5C 1429.8,808.306 1460.64,827.306 1487.5,852.5C 1520.98,893.152 1559.31,928.319 1602.5,958C 1599.67,959.398 1596.84,959.898 1594,959.5C 1559.37,954.047 1525.54,944.88 1492.5,932C 1470.27,922.766 1451.44,908.932 1436,890.5C 1415.74,864.503 1398.91,836.336 1385.5,806C 1385.58,803.695 1385.75,801.195 1386,798.5C 1386.7,797.309 1387.53,796.309 1388.5,795.5 Z"/></g>
</svg>

