<?xml version="1.0" standalone="no"?><!DOCTYPE svg PUBLIC "-//W3C//DTD SVG 1.1//EN" "http://www.w3.org/Graphics/SVG/1.1/DTD/svg11.dtd"><svg t="1742884488225" class="icon" viewBox="0 0 1024 1024" version="1.1" xmlns="http://www.w3.org/2000/svg" p-id="7024" xmlns:xlink="http://www.w3.org/1999/xlink" width="256" height="256"><path d="M168 88l-18.016 16.992-44.992 44.992-16.992 18.016 12.992 20.992 67.008 112 8.992 16H271.04l128 127.008c-114.336 114.912-259.84 260.8-264.992 266.016-50.144 50.112-50.304 132.288 0.96 180 50.08 49.376 131.456 50.624 179.04 0l0.96-1.024L512 691.008l198.016 198.976 2.976 2.016c50.208 47.392 130.112 47.936 177.024-2.016v-0.96h0.96c49.024-50.112 49.536-131.584-0.96-179.04l-1.024-0.96-166.976-166.016c112.32-10.464 200.32-105.376 201.984-220h0.992c0.064-0.672-0.064-1.344 0-2.016V320c3.104-37.024-4.832-72.32-24-103.008L879.04 183.04l-28 28-121.024 120.992-44.992-47.008 118.016-117.984 33.984-34.016-44-17.984A224.096 224.096 0 0 0 704 96c-123.04 0-224 100.96-224 224 0 13.408 2.848 25.056 4.992 36.992-14.016 14.08-24.544 25.504-40.992 42.016L316.992 272V176.992l-16-8.992-112-67.008-20.992-12.992zM704 160c4.544 0 7.68 2.624 12 3.008l-99.008 98.976-21.984 22.016 21.984 23.008 90.016 92.992 21.984 23.008 23.008-23.008 104-104c0.672 7.36 5.824 12.736 4.992 20.992V320c0 88.16-71.84 160-160 160-11.712 0-25.984-2.816-41.984-6.016l-17.024-2.976-12 12-360.96 361.984h-1.024v1.024c-22.784 24.864-62.528 25.44-88.992-1.024v-0.992h-1.024c-24.864-22.784-25.44-62.528 1.024-88.992 12.096-12.128 247.008-249.024 361.984-364l13.024-12.992-5.024-18.016A198.08 198.08 0 0 1 544 320c0-88.16 71.84-160 160-160z m-526.016 8l75.008 46.016v32l-6.976 6.976h-32L168 178.016l10.016-10.016z m468 388.992l199.04 198.016v0.992h0.96c24.896 22.784 25.472 62.528-0.96 88.992h-1.024v1.024c-22.784 24.864-62.528 25.44-88.992-1.024l-198.016-198.976 89.024-89.024z" p-id="7025" fill="#ffffff"></path></svg>