<?xml version="1.0" standalone="no"?><!DOCTYPE svg PUBLIC "-//W3C//DTD SVG 1.1//EN" "http://www.w3.org/Graphics/SVG/1.1/DTD/svg11.dtd"><svg t="1742887082612" class="icon" viewBox="0 0 1024 1024" version="1.1" xmlns="http://www.w3.org/2000/svg" p-id="13151" xmlns:xlink="http://www.w3.org/1999/xlink" width="256" height="256"><path d="M1017.6 781.8c-1.2 8.2-3.2 16.2-6.2 22.4-5.4 11-10.6 12-31 11-26.4-1.2-64.2 0-104.2 1.6 0 11 0.4 16.2 0.4 16.2 2.6 30.2 16.2 31.2 21.6 31.2 6 0 78.4 0 86 0s14.6 0 20-3.6c7-4.6 10-18 12.6-41.4 0.4-3.4 0.6-7.8 0.8-13 0 0 0-0.2 0-0.2 0-1.6 0.2-3.6 0.2-5.8 0-0.8 0-1.6 0-2.2 0 0 0 0 0 0C1017.8 792.6 1017.8 786.6 1017.6 781.8z" p-id="13152" fill="#ffffff"></path><path d="M6 781.8c1.2 8.2 3.2 16.2 6.2 22.4 5.4 11 10.6 12 31 11 26.4-1.2 64.2 0 104.2 1.6 0 11-0.4 16.2-0.4 16.2-2.6 30.2-16.2 31.2-21.6 31.2-6 0-78.4 0-86 0s-14 0-20-3.6c-7.2-4.2-10-18-12.6-41.4-0.4-3.4-0.6-7.8-0.8-13 0 0 0-0.2 0-0.2 0-1.6-0.2-3.6-0.2-5.8 0-0.8 0-1.6 0-2.2 0 0 0 0 0 0C6 792.6 6 786.6 6 781.8z" p-id="13153" fill="#ffffff"></path><path d="M1024 593.2c0-61.4-8-121.4-11.2-128-2.4-4.8-17.8-17.4-52.8-41.2-35.4-24.2-34.6-20.6-41-36.4 5.8-1.8 11.4-5.2 14.8-5.6 7.6-0.8 8 6.4 23.8 6.4s50-4.2 57-11.2c7-7 9.2-9.4 9.2-15.6s-3.6-19-10.4-26.6-35.8-11.4-52.8-13.6-19.4 0-23.8 2.8c-7 4.4-7.4 44.6-7.4 44.6l-16.6 0.4c-10.8-26.6-25.8-80.2-49.2-122.4-25.6-46-52.4-60.4-63.6-64-11-3.4-21-5.8-96-13.4-76.6-8-137.6-9-192-9s-115.4 1.2-192 9c-75 7.8-85 10-96 13.4-11 3.4-38 18-63.6 64-23.4 42.2-38.4 95.8-49.2 122.4l-16.6-0.4c0 0-0.2-40.2-7.4-44.6-4.4-2.8-6.8-5.2-23.8-2.8s-46 6-52.8 13.6-10.4 20.4-10.4 26.6 2.2 8.8 9.2 15.6c7 7 41.2 11.2 57 11.2s16.2-7.2 23.8-6.4c3.4 0.4 9.2 3.8 14.8 5.6-6.6 15.8-5.6 12.2-41 36.4-35 24-50.6 36.4-52.8 41.2C8 471.8 0 531.8 0 593.2s4.4 116.6 4.4 136.2c0 8.2 0 22.6 1.8 36.4 1.2 8.2 3 16.2 6.2 22.4 5.4 11 10.4 12 31 11 26.4-1.2 64.6 0 104 1.6 26.4 1 53.4 2 77.4 2.6 60 1.2 42.4-8.8 68-8.4 25.6 0.4 126.6 4.6 219 4.6s193.6-4.2 219-4.6c25.6-0.4 8 9.6 68 8.4 24-0.4 51-1.6 77.4-2.6 39.4-1.4 77.8-2.8 104-1.6 20.6 1 25.6 0 31-11 3-6.2 5-14.2 6.2-22.4 2-13.8 1.8-28.2 1.8-36.4C1019.6 710 1024 654.6 1024 593.2zM172.4 290.4c9.6-22.4 38.4-67.4 52.4-75.4 3.4-2 33.2-11.4 107.8-16.4 68.6-4.6 144.4-6.4 179.6-6.4s111 1.8 179.6 6.4c74.4 5 104.6 14.2 107.8 16.4 18 12.4 42.8 53 52.4 75.4 9.6 22.4 22.4 66.4 20 72.4-2.4 6 2.4 9-30 6.4-32.2-2.4-234.4-5-329.6-5-95 0-297.2 2.6-329.6 5-32.4 2.4-27.6-0.4-30-6.4C150 356.8 162.8 313 172.4 290.4zM246 540.8c-14.4 3.6-23 11.4-41 11.2-18 0-66.6-8.2-77-8.6-10.4-0.4-19.6 7-25 8.4s-16-2.4-32-7.4-25.4-3.6-30.6-25.4c-5.4-21.6 0-52.6 0-52.6 34.6-1.6 68 1.6 130.6 19.2 62.6 17.6 97.4 51.4 97.4 51.4S260.4 537.2 246 540.8zM716.4 698.4c-28.6 3.8-148.4 4.8-204.4 4.8-56 0-175.8-1.2-204.4-4.8-29.2-3.8-67.2-38.8-41-66.6 35.4-37.8 28.8-36.6 109.2-47 69.6-9 122.4-9.4 136.2-9.4 13.6 0 66.6 0.6 136.2 9.4 80.4 10.4 73.8 9.2 109.2 47C783.6 659.6 745.6 694.6 716.4 698.4zM983.6 519.2c-5.4 21.6-14.6 20.4-30.6 25.4s-26.6 8.6-32 7.4-14.6-8.6-25-8.4c-10.4 0.4-59 8.6-77 8.6-18 0-26.6-7.6-41-11.2-14.4-3.6-22.4-3.6-22.4-3.6s34.6-34 97.4-51.4c62.6-17.6 96-20.8 130.6-19.2C983.6 466.4 989 497.4 983.6 519.2z" p-id="13154" fill="#ffffff"></path></svg>