<?xml version="1.0" standalone="no"?><!DOCTYPE svg PUBLIC "-//W3C//DTD SVG 1.1//EN" "http://www.w3.org/Graphics/SVG/1.1/DTD/svg11.dtd"><svg t="1742785072727" class="icon" viewBox="0 0 1024 1024" version="1.1" xmlns="http://www.w3.org/2000/svg" p-id="5468" xmlns:xlink="http://www.w3.org/1999/xlink" width="256" height="256"><path d="M820.864 214.186667a117.333333 117.333333 0 0 1 117.12 110.208l0.213333 7.168v362.88a117.333333 117.333333 0 0 1-110.208 117.12l-7.125333 0.213333H203.093333a117.333333 117.333333 0 0 1-117.12-110.208l-0.213333-7.125333V331.52a117.333333 117.333333 0 0 1 110.165333-117.12l7.168-0.213333h617.728z m53.290667 254.933333H149.76v225.28c0 27.648 21.034667 50.346667 47.914667 53.077333l5.461333 0.298667h617.728a53.333333 53.333333 0 0 0 53.034667-47.872l0.298666-5.461333-0.042666-225.322667zM778.794667 618.666667a32 32 0 0 1 4.309333 63.701333l-4.309333 0.298667h-106.666667a32 32 0 0 1-4.352-63.701334l4.352-0.298666h106.666667z m42.069333-340.48H203.093333a53.333333 53.333333 0 0 0-53.077333 47.914666l-0.256 5.461334-0.042667 73.557333h724.394667V331.52a53.333333 53.333333 0 0 0-47.872-53.077333l-5.418667-0.256z" fill="#212121" p-id="5469"></path></svg>