<?xml version="1.0" standalone="no"?><!DOCTYPE svg PUBLIC "-//W3C//DTD SVG 1.1//EN" "http://www.w3.org/Graphics/SVG/1.1/DTD/svg11.dtd"><svg t="1742785117470" class="icon" viewBox="0 0 1024 1024" version="1.1" xmlns="http://www.w3.org/2000/svg" p-id="7677" xmlns:xlink="http://www.w3.org/1999/xlink" width="256" height="256"><path d="M498.036364 937.890909H285.789091a168.96 168.96 0 0 1-168.494546-168.494545V268.101818a168.96 168.96 0 0 1 168.494546-168.96h372.363636a168.96 168.96 0 0 1 168.494546 168.96v71.214546a23.272727 23.272727 0 0 1-46.545455 0V268.101818a122.414545 122.414545 0 0 0-123.810909-122.414545h-372.363636a121.949091 121.949091 0 0 0-120.087273 122.414545v501.294546a121.949091 121.949091 0 0 0 121.949091 121.949091h212.247273a23.272727 23.272727 0 0 1 0 46.545454z" fill="#2c2c2c" p-id="7678"></path><path d="M651.636364 334.196364H312.32a23.272727 23.272727 0 0 1 0-46.545455H651.636364a23.272727 23.272727 0 0 1 0 46.545455zM413.323636 527.825455H312.32a23.738182 23.738182 0 0 1-23.272727-23.272728 23.272727 23.272727 0 0 1 23.272727-23.272727h101.003636a23.272727 23.272727 0 0 1 23.272728 23.272727 23.738182 23.738182 0 0 1-23.272728 23.272728zM413.323636 720.989091H312.32a23.272727 23.272727 0 0 1-23.272727-23.272727 23.738182 23.738182 0 0 1 23.272727-23.272728h101.003636a23.738182 23.738182 0 0 1 23.272728 23.272728 23.272727 23.272727 0 0 1-23.272728 23.272727zM722.385455 930.909091l-9.309091-4.654546c-239.709091-107.054545-232.727273-394.705455-232.727273-406.807272v-15.825455L722.385455 418.909091l238.778181 86.109091v15.825454c0 12.101818 9.309091 299.752727-229.934545 406.807273z m-192.698182-394.24c0 57.250909 20.48 258.792727 192.698182 343.04 172.683636-84.712727 191.301818-285.789091 193.163636-343.04l-193.163636-69.818182z" fill="#2c2c2c" p-id="7679"></path><path d="M698.181818 740.072727a23.272727 23.272727 0 0 1-17.221818-7.912727l-51.665455-59.112727a23.738182 23.738182 0 0 1 0-33.047273 23.738182 23.738182 0 0 1 33.047273 2.327273l35.374546 40.494545 116.363636-121.483636a23.272727 23.272727 0 1 1 33.512727 32.116363l-134.050909 139.636364a22.341818 22.341818 0 0 1-15.36 6.981818z" fill="#2c2c2c" p-id="7680"></path></svg>