<?xml version="1.0" standalone="no"?><!DOCTYPE svg PUBLIC "-//W3C//DTD SVG 1.1//EN" "http://www.w3.org/Graphics/SVG/1.1/DTD/svg11.dtd"><svg t="1742432436703" class="icon" viewBox="0 0 1024 1024" version="1.1" xmlns="http://www.w3.org/2000/svg" p-id="19325" width="256" height="256" xmlns:xlink="http://www.w3.org/1999/xlink"><path d="M71.84375 73.25L63.40625 62h337.5v340.3125L71.84375 73.25zM344.65625 343.25V116.84375H121.0625L344.65625 343.25z m-60.46875-57.65625L175.90625 174.5v-2.8125h113.90625v113.90625h-5.625z m676.40625 112.5H624.5V62h337.5v336.09375z m-281.25-54.84375h223.59375V116.84375H679.34375V343.25z m126.5625 478.125h40.78125v-54.84375h54.84375v140.625h54.84375V962h-19.6875l-130.78125-140.625zM568.25 578.09375l-112.5-115.3125V199.8125h82.96875V90.125h54.84375v168.75h-82.96875v82.96875h54.84375v54.84375h-54.84375v82.96875h195.46875v111.09375h-54.84375v-54.84375H568.25v42.1875z m71.71875 74.53125h151.875V483.875h54.84375v-54.84375h54.84375V483.875h54.84375v57.65625h-113.90625V652.625h113.90625v54.84375H693.40625c2.8125 0-53.4375-54.84375-53.4375-54.84375zM737 171.6875h113.90625v113.90625H737V171.6875z" fill="#e6e6e6" p-id="19326"></path></svg>