<?xml version="1.0" standalone="no"?><!DOCTYPE svg PUBLIC "-//W3C//DTD SVG 1.1//EN" "http://www.w3.org/Graphics/SVG/1.1/DTD/svg11.dtd"><svg t="1742799732352" class="icon" viewBox="0 0 1024 1024" version="1.1" xmlns="http://www.w3.org/2000/svg" p-id="4697" xmlns:xlink="http://www.w3.org/1999/xlink" width="256" height="256"><path d="M227.5328 454.9632c31.4368 0 56.9344 25.4976 56.9344 56.9344v227.5328c0 31.4368-25.4976 56.9344-56.9344 56.9344h-56.9344c-31.4368 0-56.9344-25.4976-56.9344-56.9344V454.9632h113.8688z m568.9344 0h113.7664v284.4672c0 31.4368-25.4976 56.9344-56.9344 56.9344h-56.9344c-31.4368 0-56.9344-25.4976-56.9344-56.9344V511.8976c0.1024-31.4368 25.6-56.9344 57.0368-56.9344z m56.832 227.5328c0-15.6672 12.6976-28.4672 28.4672-28.4672 15.6672 0 28.4672 12.6976 28.4672 28.4672v104.448c-0.8192 116.0192-55.3984 180.224-157.5936 180.224H540.672c-15.6672 0-28.4672-12.6976-28.4672-28.4672 0-15.6672 12.6976-28.4672 28.4672-28.4672h211.968c68.5056 0 100.0448-37.0688 100.6592-123.5968V682.496zM170.7008 454.9632h-56.9344c0-219.9552 178.2784-398.2336 398.2336-398.2336s398.2336 178.2784 398.2336 398.2336h-56.9344C853.2992 266.4448 700.5184 113.664 512 113.664S170.7008 266.4448 170.7008 454.9632z" fill="#ffffff" p-id="4698"></path></svg>