<?xml version="1.0" encoding="UTF-8"?>
<!DOCTYPE svg PUBLIC "-//W3C//DTD SVG 1.1//EN" "http://www.w3.org/Graphics/SVG/1.1/DTD/svg11.dtd">
<svg xmlns="http://www.w3.org/2000/svg" version="1.1" width="44px" height="22px" style="shape-rendering:geometricPrecision; text-rendering:geometricPrecision; image-rendering:optimizeQuality; fill-rule:evenodd; clip-rule:evenodd" xmlns:xlink="http://www.w3.org/1999/xlink">
<g><path style="opacity:1" fill="#fe9b9b" d="M 23.5,0.5 C 23.5,0.166667 23.5,-0.166667 23.5,-0.5C 30.1667,-0.5 36.8333,-0.5 43.5,-0.5C 43.5,0.166667 43.5,0.833333 43.5,1.5C 43.1667,1.5 42.8333,1.5 42.5,1.5C 36.3554,0.509836 30.0221,0.176503 23.5,0.5 Z"/></g>
<g><path style="opacity:1" fill="#070504" d="M 23.5,0.5 C 23.4828,2.56475 23.1495,4.56475 22.5,6.5C 21.8333,7.83333 21.1667,9.16667 20.5,10.5C 18.777,9.19989 16.6103,8.53323 14,8.5C 11.6392,8.50393 9.47256,8.83726 7.5,9.5C 4.37911,10.2876 2.71244,12.2876 2.5,15.5C 1.87605,15.0831 1.54272,14.4164 1.5,13.5C 2.66148,9.18852 3.66148,4.85519 4.5,0.5C 10.8333,0.5 17.1667,0.5 23.5,0.5 Z"/></g>
<g><path style="opacity:1" fill="#fe0703" d="M 23.5,0.5 C 30.0221,0.176503 36.3554,0.509836 42.5,1.5C 41.8333,4.83333 41.1667,8.16667 40.5,11.5C 39.8333,11.1667 39.1667,10.8333 38.5,10.5C 38.5,9.83333 38.1667,9.5 37.5,9.5C 32.2514,9.14126 27.2514,8.14126 22.5,6.5C 23.1495,4.56475 23.4828,2.56475 23.5,0.5 Z"/></g>
<g><path style="opacity:0.298" fill="#bababa" d="M 3.5,-0.5 C 10.1667,-0.5 16.8333,-0.5 23.5,-0.5C 23.5,-0.166667 23.5,0.166667 23.5,0.5C 17.1667,0.5 10.8333,0.5 4.5,0.5C 3.66148,4.85519 2.66148,9.18852 1.5,13.5C 1.54272,14.4164 1.87605,15.0831 2.5,15.5C 2.5,16.5 2.5,17.5 2.5,18.5C 1.77842,18.0825 1.27842,17.4158 1,16.5C 0.76791,17.7375 0.26791,18.7375 -0.5,19.5C -0.5,17.5 -0.5,15.5 -0.5,13.5C 1.12297,9.02226 2.4563,4.35559 3.5,-0.5 Z"/></g>
<g><path style="opacity:1" fill="#7a7a7a" d="M 7.5,9.5 C 9.47256,8.83726 11.6392,8.50393 14,8.5C 16.6103,8.53323 18.777,9.19989 20.5,10.5C 20.1667,10.5 19.8333,10.5 19.5,10.5C 15.7016,9.51658 11.7016,9.18325 7.5,9.5 Z"/></g>
<g><path style="opacity:1" fill="#f56561" d="M 22.5,6.5 C 27.2514,8.14126 32.2514,9.14126 37.5,9.5C 32.5,9.5 27.5,9.5 22.5,9.5C 22.7845,11.4147 22.4511,13.0813 21.5,14.5C 21.6716,13.5084 21.3382,12.8417 20.5,12.5C 20.5,11.8333 20.5,11.1667 20.5,10.5C 21.1667,9.16667 21.8333,7.83333 22.5,6.5 Z"/></g>
<g><path style="opacity:1" fill="#efefef" d="M 7.5,9.5 C 11.7016,9.18325 15.7016,9.51658 19.5,10.5C 16.023,11.3227 12.3563,11.8227 8.5,12C 7.13865,13.5843 6.47199,15.4176 6.5,17.5C 9.24688,17.8134 11.9135,17.48 14.5,16.5C 10.3561,14.8231 10.5228,13.8231 15,13.5C 16.1667,13.8333 17.3333,14.1667 18.5,14.5C 17.6906,16.0709 17.3573,17.7376 17.5,19.5C 12.3054,19.8205 7.30537,19.4872 2.5,18.5C 2.5,17.5 2.5,16.5 2.5,15.5C 2.71244,12.2876 4.37911,10.2876 7.5,9.5 Z"/></g>
<g><path style="opacity:1" fill="#ffeeed" d="M 37.5,9.5 C 38.1667,9.5 38.5,9.83333 38.5,10.5C 38.4048,13.2723 37.0715,15.2723 34.5,16.5C 36.8029,19.4025 35.8029,20.2358 31.5,19C 30.624,17.414 29.624,15.914 28.5,14.5C 30.5,13.8333 32.5,13.1667 34.5,12.5C 31.9135,11.52 29.2469,11.1866 26.5,11.5C 26.2208,14.1178 25.5541,16.6178 24.5,19C 23.0563,19.7805 21.723,19.6139 20.5,18.5C 21.2458,17.2638 21.5792,15.9305 21.5,14.5C 22.4511,13.0813 22.7845,11.4147 22.5,9.5C 27.5,9.5 32.5,9.5 37.5,9.5 Z"/></g>
<g><path style="opacity:0.353" fill="#ffeceb" d="M 42.5,1.5 C 42.8333,1.5 43.1667,1.5 43.5,1.5C 43.5,3.16667 43.5,4.83333 43.5,6.5C 41.722,11.2715 40.3887,16.2715 39.5,21.5C 38.8333,21.5 38.1667,21.5 37.5,21.5C 38.4967,18.183 39.4967,14.8497 40.5,11.5C 41.1667,8.16667 41.8333,4.83333 42.5,1.5 Z"/></g>
<g><path style="opacity:1" fill="#1c1b1b" d="M 19.5,10.5 C 19.8333,10.5 20.1667,10.5 20.5,10.5C 20.5,11.1667 20.5,11.8333 20.5,12.5C 19.99,15.5394 19.3234,18.5394 18.5,21.5C 12.1667,21.5 5.83333,21.5 -0.5,21.5C -0.5,20.8333 -0.5,20.1667 -0.5,19.5C 0.26791,18.7375 0.76791,17.7375 1,16.5C 1.27842,17.4158 1.77842,18.0825 2.5,18.5C 7.30537,19.4872 12.3054,19.8205 17.5,19.5C 17.3573,17.7376 17.6906,16.0709 18.5,14.5C 17.3333,14.1667 16.1667,13.8333 15,13.5C 10.5228,13.8231 10.3561,14.8231 14.5,16.5C 11.9135,17.48 9.24688,17.8134 6.5,17.5C 6.47199,15.4176 7.13865,13.5843 8.5,12C 12.3563,11.8227 16.023,11.3227 19.5,10.5 Z"/></g>
<g><path style="opacity:1" fill="#fd2b21" d="M 38.5,10.5 C 39.1667,10.8333 39.8333,11.1667 40.5,11.5C 39.4967,14.8497 38.4967,18.183 37.5,21.5C 31.1667,21.5 24.8333,21.5 18.5,21.5C 19.3234,18.5394 19.99,15.5394 20.5,12.5C 21.3382,12.8417 21.6716,13.5084 21.5,14.5C 21.5792,15.9305 21.2458,17.2638 20.5,18.5C 21.723,19.6139 23.0563,19.7805 24.5,19C 25.5541,16.6178 26.2208,14.1178 26.5,11.5C 29.2469,11.1866 31.9135,11.52 34.5,12.5C 32.5,13.1667 30.5,13.8333 28.5,14.5C 29.624,15.914 30.624,17.414 31.5,19C 35.8029,20.2358 36.8029,19.4025 34.5,16.5C 37.0715,15.2723 38.4048,13.2723 38.5,10.5 Z"/></g>
</svg>
