<?xml version="1.0" encoding="UTF-8"?>
<!DOCTYPE svg PUBLIC "-//W3C//DTD SVG 1.1//EN" "http://www.w3.org/Graphics/SVG/1.1/DTD/svg11.dtd">
<svg xmlns="http://www.w3.org/2000/svg" version="1.1" width="160px" height="160px" style="shape-rendering:geometricPrecision; text-rendering:geometricPrecision; image-rendering:optimizeQuality; fill-rule:evenodd; clip-rule:evenodd" xmlns:xlink="http://www.w3.org/1999/xlink">
<g><path style="opacity:0.012" fill="#a9a9a9" d="M -0.5,-0.5 C 52.8333,-0.5 106.167,-0.5 159.5,-0.5C 159.5,52.8333 159.5,106.167 159.5,159.5C 106.167,159.5 52.8333,159.5 -0.5,159.5C -0.5,106.167 -0.5,52.8333 -0.5,-0.5 Z"/></g>
<g><path style="opacity:0.856" fill="#818386" d="M 106.5,22.5 C 102.143,22.4135 97.81,22.0802 93.5,21.5C 82.1618,21.3335 70.8284,21.5001 59.5,22C 57.2922,22.1909 55.2922,22.6909 53.5,23.5C 51.901,23.2322 50.5676,23.5655 49.5,24.5C 45.6684,24.8816 42.335,26.2149 39.5,28.5C 37.2512,29.0798 35.5846,30.4131 34.5,32.5C 33.8333,32.5 33.1667,32.5 32.5,32.5C 34.3355,29.8324 36.6688,27.6657 39.5,26C 52.6466,20.928 66.3132,18.7613 80.5,19.5C 88.1979,19.5487 95.8646,20.0487 103.5,21C 104.737,21.2321 105.737,21.7321 106.5,22.5 Z"/></g>
<g><path style="opacity:1" fill="#93969d" d="M 93.5,21.5 C 93.1961,22.1499 92.8627,22.8165 92.5,23.5C 94.6545,24.9278 96.8212,25.2611 99,24.5C 99.9669,25.6776 100.467,27.011 100.5,28.5C 102.555,29.1872 104.221,30.3539 105.5,32C 102.427,33.725 101.427,36.225 102.5,39.5C 101.872,41.2581 100.872,42.7581 99.5,44C 100.167,44.3333 100.833,44.6667 101.5,45C 99.6568,47.4845 97.9901,50.1512 96.5,53C 96.6448,53.772 96.9781,54.4387 97.5,55C 96.1667,56.6667 94.8333,58.3333 93.5,60C 94.8825,61.4609 94.5492,62.2942 92.5,62.5C 90.8816,60.684 88.8816,59.3507 86.5,58.5C 85.3285,57.6554 83.9952,56.9887 82.5,56.5C 87.1287,50.2623 89.962,43.929 91,37.5C 91.7504,36.8742 92.5838,36.3742 93.5,36C 91.5188,35.3946 91.1854,34.3946 92.5,33C 89.5804,30.2011 85.5804,28.2011 80.5,27C 71.747,26.041 62.747,24.8743 53.5,23.5C 55.2922,22.6909 57.2922,22.1909 59.5,22C 70.8284,21.5001 82.1618,21.3335 93.5,21.5 Z"/></g>
<g><path style="opacity:1" fill="#a6a8ad" d="M 49.5,24.5 C 56.5325,25.4334 63.5325,26.6 70.5,28C 74.1519,29.2472 77.4852,31.0805 80.5,33.5C 80.7132,36.7302 80.2132,40.0636 79,43.5C 76.7042,46.2258 74.8709,49.2258 73.5,52.5C 74.0253,53.1924 74.6919,53.6924 75.5,54C 74.7476,54.6708 74.4142,55.5041 74.5,56.5C 71.5,56.5 68.5,56.5 65.5,56.5C 67.4312,50.1452 69.7646,43.9785 72.5,38C 71.8333,37.6667 71.1667,37.3333 70.5,37C 71.4506,36.2825 71.6172,35.4491 71,34.5C 61.5293,27.7767 51.0293,25.7767 39.5,28.5C 42.335,26.2149 45.6684,24.8816 49.5,24.5 Z"/></g>
<g><path style="opacity:1" fill="#b6b7bb" d="M 65.5,56.5 C 64.5,56.5 63.5,56.5 62.5,56.5C 60.1667,56.5 57.8333,56.5 55.5,56.5C 64.6798,37.9758 59.0131,29.1425 38.5,30C 37.6195,30.7083 36.9528,31.5416 36.5,32.5C 35.8333,32.5 35.1667,32.5 34.5,32.5C 35.5846,30.4131 37.2512,29.0798 39.5,28.5C 51.0293,25.7767 61.5293,27.7767 71,34.5C 71.6172,35.4491 71.4506,36.2825 70.5,37C 71.1667,37.3333 71.8333,37.6667 72.5,38C 69.7646,43.9785 67.4312,50.1452 65.5,56.5 Z"/></g>
<g><path style="opacity:1" fill="#9da0a6" d="M 49.5,24.5 C 50.5676,23.5655 51.901,23.2322 53.5,23.5C 62.747,24.8743 71.747,26.041 80.5,27C 85.5804,28.2011 89.5804,30.2011 92.5,33C 91.1854,34.3946 91.5188,35.3946 93.5,36C 92.5838,36.3742 91.7504,36.8742 91,37.5C 89.962,43.929 87.1287,50.2623 82.5,56.5C 79.8333,56.5 77.1667,56.5 74.5,56.5C 74.4142,55.5041 74.7476,54.6708 75.5,54C 74.6919,53.6924 74.0253,53.1924 73.5,52.5C 74.8709,49.2258 76.7042,46.2258 79,43.5C 80.2132,40.0636 80.7132,36.7302 80.5,33.5C 77.4852,31.0805 74.1519,29.2472 70.5,28C 63.5325,26.6 56.5325,25.4334 49.5,24.5 Z"/></g>
<g><path style="opacity:1" fill="#c3c4c8" d="M 55.5,56.5 C 53.5,56.5 51.5,56.5 49.5,56.5C 49.3942,52.5785 50.0608,48.5785 51.5,44.5C 51.1052,34.4191 46.1052,30.4191 36.5,32.5C 36.9528,31.5416 37.6195,30.7083 38.5,30C 59.0131,29.1425 64.6798,37.9758 55.5,56.5 Z"/></g>
<g><path style="opacity:0.976" fill="#7f8080" d="M 23.5,48.5 C 22.9401,52.1932 22.2735,55.8598 21.5,59.5C 20.3709,57.3718 20.2042,55.0385 21,52.5C 21.6253,50.2929 22.4586,48.9596 23.5,48.5 Z"/></g>
<g><path style="opacity:1" fill="#7c7c7c" d="M 49.5,56.5 C 51.5,56.5 53.5,56.5 55.5,56.5C 57.8333,56.5 60.1667,56.5 62.5,56.5C 57.8186,59.7009 54.3186,64.0343 52,69.5C 50.7453,70.2106 49.5786,71.044 48.5,72C 48.9574,72.414 49.2907,72.914 49.5,73.5C 48.3649,75.7989 47.0316,77.9656 45.5,80C 45.8333,80.3333 46.1667,80.6667 46.5,81C 44.5587,87.8853 43.8921,95.052 44.5,102.5C 43.5038,87.3424 43.1705,72.0091 43.5,56.5C 45.5,56.5 47.5,56.5 49.5,56.5 Z"/></g>
<g><path style="opacity:1" fill="#525353" d="M 86.5,58.5 C 84.5,61.5 82.5,64.5 80.5,67.5C 78.5648,66.8505 76.5648,66.5172 74.5,66.5C 75.5366,59.4714 79.5366,56.8047 86.5,58.5 Z"/></g>
<g><path style="opacity:1" fill="#95989f" d="M 124.5,48.5 C 124.519,50.0603 124.852,51.5603 125.5,53C 122.385,70.3214 119.385,87.9881 116.5,106C 113.382,112.616 110.049,119.116 106.5,125.5C 101.741,129.283 97.0743,132.95 92.5,136.5C 81.2022,136.745 80.8688,135.911 91.5,134C 98.8728,129.025 103.206,122.358 104.5,114C 105.438,112.937 106.438,111.77 107.5,110.5C 107.291,109.914 106.957,109.414 106.5,109C 107.761,106.745 109.094,104.578 110.5,102.5C 112.099,102.768 113.432,102.434 114.5,101.5C 115.329,93.3434 115.829,85.0101 116,76.5C 117.078,69.1388 119.078,61.8054 122,54.5C 121.454,51.0181 121.788,47.6847 123,44.5C 123.21,46.0581 123.71,47.3915 124.5,48.5 Z"/></g>
<g><path style="opacity:1" fill="#6e6e6e" d="M 62.5,56.5 C 63.5,56.5 64.5,56.5 65.5,56.5C 68.5,56.5 71.5,56.5 74.5,56.5C 77.1667,56.5 79.8333,56.5 82.5,56.5C 83.9952,56.9887 85.3285,57.6554 86.5,58.5C 79.5366,56.8047 75.5366,59.4714 74.5,66.5C 70.1667,66.5 65.8333,66.5 61.5,66.5C 59.5,66.5 57.5,66.5 55.5,66.5C 55.6665,78.1714 55.4999,89.8381 55,101.5C 53.9887,102.337 52.8221,102.67 51.5,102.5C 49.8333,102.5 48.1667,102.5 46.5,102.5C 45.8333,102.5 45.1667,102.5 44.5,102.5C 43.8921,95.052 44.5587,87.8853 46.5,81C 46.1667,80.6667 45.8333,80.3333 45.5,80C 47.0316,77.9656 48.3649,75.7989 49.5,73.5C 49.2907,72.914 48.9574,72.414 48.5,72C 49.5786,71.044 50.7453,70.2106 52,69.5C 54.3186,64.0343 57.8186,59.7009 62.5,56.5 Z"/></g>
<g><path style="opacity:1" fill="#888c92" d="M 93.5,21.5 C 97.81,22.0802 102.143,22.4135 106.5,22.5C 121.801,24.9696 131.468,33.6362 135.5,48.5C 134.599,47.7095 133.932,46.7095 133.5,45.5C 132.312,41.7909 130.146,38.7909 127,36.5C 126.295,40.6653 125.461,44.6653 124.5,48.5C 123.71,47.3915 123.21,46.0581 123,44.5C 121.788,47.6847 121.454,51.0181 122,54.5C 119.078,61.8054 117.078,69.1388 116,76.5C 115.829,85.0101 115.329,93.3434 114.5,101.5C 114.5,95.1667 114.5,88.8333 114.5,82.5C 114.5,73.8333 114.5,65.1667 114.5,56.5C 110.629,56.185 106.962,56.5184 103.5,57.5C 103.5,65.1667 103.5,72.8333 103.5,80.5C 103.5,84.5 103.5,88.5 103.5,92.5C 103.5,95.8333 103.5,99.1667 103.5,102.5C 105.833,102.5 108.167,102.5 110.5,102.5C 109.094,104.578 107.761,106.745 106.5,109C 106.957,109.414 107.291,109.914 107.5,110.5C 106.438,111.77 105.438,112.937 104.5,114C 103.206,122.358 98.8728,129.025 91.5,134C 80.8688,135.911 81.2022,136.745 92.5,136.5C 97.0323,136.818 101.366,136.485 105.5,135.5C 106.5,135.5 107.5,135.5 108.5,135.5C 109.239,135.369 109.906,135.536 110.5,136C 87.6431,141.321 64.9765,140.654 42.5,134C 38.2027,132.695 34.8694,130.195 32.5,126.5C 34.0618,126.733 35.3951,127.4 36.5,128.5C 40.5097,131.843 45.1764,133.843 50.5,134.5C 55.9106,136.368 61.5773,136.868 67.5,136C 66.3774,134.956 65.0441,134.29 63.5,134C 62.4258,133.261 61.7591,132.261 61.5,131C 63.4756,126.744 65.6423,122.578 68,118.5C 69.2664,120.196 69.0997,122.029 67.5,124C 67.8333,124.333 68.1667,124.667 68.5,125C 66.6131,126.969 65.2798,129.302 64.5,132C 69.0097,134.927 73.343,135.594 77.5,134C 74.4869,133.498 71.4869,132.998 68.5,132.5C 67.8364,129.102 69.0031,126.102 72,123.5C 71.4048,121.452 71.9048,119.452 73.5,117.5C 76.3618,115.503 78.3618,113.336 79.5,111C 78.9781,110.439 78.6448,109.772 78.5,109C 79.6667,106.833 80.8333,104.667 82,102.5C 82.4998,91.8385 82.6665,81.1719 82.5,70.5C 83.4345,71.5676 83.7678,72.901 83.5,74.5C 83.5,83.8333 83.5,93.1667 83.5,102.5C 87.1667,102.5 90.8333,102.5 94.5,102.5C 94.5,98.8333 94.5,95.1667 94.5,91.5C 94.6664,83.16 94.4997,74.8267 94,66.5C 93.2086,65.255 92.7086,63.9217 92.5,62.5C 94.5492,62.2942 94.8825,61.4609 93.5,60C 94.8333,58.3333 96.1667,56.6667 97.5,55C 96.9781,54.4387 96.6448,53.772 96.5,53C 97.9901,50.1512 99.6568,47.4845 101.5,45C 100.833,44.6667 100.167,44.3333 99.5,44C 100.872,42.7581 101.872,41.2581 102.5,39.5C 101.427,36.225 102.427,33.725 105.5,32C 104.221,30.3539 102.555,29.1872 100.5,28.5C 100.467,27.011 99.9669,25.6776 99,24.5C 96.8212,25.2611 94.6545,24.9278 92.5,23.5C 92.8627,22.8165 93.1961,22.1499 93.5,21.5 Z"/></g>
<g><path style="opacity:1" fill="#101010" d="M 103.5,57.5 C 106.833,57.5 110.167,57.5 113.5,57.5C 113.666,62.5111 113.499,67.5111 113,72.5C 109.839,75.5179 107.172,78.8512 105,82.5C 104.722,81.5842 104.222,80.9175 103.5,80.5C 103.5,72.8333 103.5,65.1667 103.5,57.5 Z"/></g>
<g><path style="opacity:1" fill="#0b0b0c" d="M 86.5,58.5 C 88.8816,59.3507 90.8816,60.684 92.5,62.5C 92.7086,63.9217 93.2086,65.255 94,66.5C 94.4997,74.8267 94.6664,83.16 94.5,91.5C 91.3661,92.9009 88.3661,94.5675 85.5,96.5C 84.8333,89.0109 84.1666,81.6775 83.5,74.5C 83.7678,72.901 83.4345,71.5676 82.5,70.5C 81.8333,69.5 81.1667,68.5 80.5,67.5C 82.5,64.5 84.5,61.5 86.5,58.5 Z"/></g>
<g><path style="opacity:1" fill="#a9abb0" d="M 61.5,66.5 C 64.6248,67.4794 67.9581,67.8128 71.5,67.5C 71.7035,69.3904 71.0368,70.8904 69.5,72C 69.8333,72.3333 70.1667,72.6667 70.5,73C 67.9644,73.1862 65.631,73.6862 63.5,74.5C 62.8216,83.9017 62.1549,93.4017 61.5,103C 61.8333,103.333 62.1667,103.667 62.5,104C 60.9538,110.352 59.1205,116.852 57,123.5C 55.4112,126.634 53.5779,129.634 51.5,132.5C 54.1306,134.005 53.7973,134.671 50.5,134.5C 45.1764,133.843 40.5097,131.843 36.5,128.5C 40.6763,128.832 44.1763,127.498 47,124.5C 49.6745,117.466 51.1745,110.132 51.5,102.5C 52.8221,102.67 53.9887,102.337 55,101.5C 55.4999,89.8381 55.6665,78.1714 55.5,66.5C 57.5,66.5 59.5,66.5 61.5,66.5 Z"/></g>
<g><path style="opacity:1" fill="#202020" d="M 103.5,57.5 C 106.962,56.5184 110.629,56.185 114.5,56.5C 114.5,65.1667 114.5,73.8333 114.5,82.5C 113.835,84.3691 113.169,86.3691 112.5,88.5C 109.341,90.5038 106.841,93.1704 105,96.5C 104.79,94.9419 104.29,93.6085 103.5,92.5C 103.5,88.5 103.5,84.5 103.5,80.5C 104.222,80.9175 104.722,81.5842 105,82.5C 107.172,78.8512 109.839,75.5179 113,72.5C 113.499,67.5111 113.666,62.5111 113.5,57.5C 110.167,57.5 106.833,57.5 103.5,57.5 Z"/></g>
<g><path style="opacity:1" fill="#eeeeee" d="M 137.5,65.5 C 137.603,78.5148 137.27,91.5148 136.5,104.5C 135.732,108.699 134.399,112.699 132.5,116.5C 128.713,124.285 122.713,129.619 114.5,132.5C 112.775,132.157 112.275,131.157 113,129.5C 118.702,126.631 122.869,122.298 125.5,116.5C 131.365,99.0065 134.865,81.0065 136,62.5C 136.232,63.7375 136.732,64.7375 137.5,65.5 Z"/></g>
<g><path style="opacity:1" fill="#2a2a2a" d="M 114.5,82.5 C 114.5,88.8333 114.5,95.1667 114.5,101.5C 113.432,102.434 112.099,102.768 110.5,102.5C 108.167,102.5 105.833,102.5 103.5,102.5C 103.5,99.1667 103.5,95.8333 103.5,92.5C 104.29,93.6085 104.79,94.9419 105,96.5C 106.841,93.1704 109.341,90.5038 112.5,88.5C 113.169,86.3691 113.835,84.3691 114.5,82.5 Z"/></g>
<g><path style="opacity:1" fill="#92959c" d="M 61.5,66.5 C 65.8333,66.5 70.1667,66.5 74.5,66.5C 76.5648,66.5172 78.5648,66.8505 80.5,67.5C 81.1667,68.5 81.8333,69.5 82.5,70.5C 82.6665,81.1719 82.4998,91.8385 82,102.5C 80.8333,104.667 79.6667,106.833 78.5,109C 78.6448,109.772 78.9781,110.439 79.5,111C 78.3618,113.336 76.3618,115.503 73.5,117.5C 71.9048,119.452 71.4048,121.452 72,123.5C 69.0031,126.102 67.8364,129.102 68.5,132.5C 71.4869,132.998 74.4869,133.498 77.5,134C 73.343,135.594 69.0097,134.927 64.5,132C 65.2798,129.302 66.6131,126.969 68.5,125C 68.1667,124.667 67.8333,124.333 67.5,124C 69.0997,122.029 69.2664,120.196 68,118.5C 65.6423,122.578 63.4756,126.744 61.5,131C 61.7591,132.261 62.4258,133.261 63.5,134C 65.0441,134.29 66.3774,134.956 67.5,136C 61.5773,136.868 55.9106,136.368 50.5,134.5C 53.7973,134.671 54.1306,134.005 51.5,132.5C 53.5779,129.634 55.4112,126.634 57,123.5C 59.1205,116.852 60.9538,110.352 62.5,104C 62.1667,103.667 61.8333,103.333 61.5,103C 62.1549,93.4017 62.8216,83.9017 63.5,74.5C 65.631,73.6862 67.9644,73.1862 70.5,73C 70.1667,72.6667 69.8333,72.3333 69.5,72C 71.0368,70.8904 71.7035,69.3904 71.5,67.5C 67.9581,67.8128 64.6248,67.4794 61.5,66.5 Z"/></g>
<g><path style="opacity:1" fill="#474748" d="M 72.5,74.5 C 73.5,74.5 74.5,74.5 75.5,74.5C 75.5,83.8333 75.5,93.1667 75.5,102.5C 71.2984,102.817 67.2984,102.483 63.5,101.5C 67.1667,101.5 70.8333,101.5 74.5,101.5C 74.6664,93.8261 74.4997,86.1594 74,78.5C 70.4748,84.2306 66.9748,89.8973 63.5,95.5C 63.5,92.5 63.5,89.5 63.5,86.5C 66.9541,82.9645 69.9541,78.9645 72.5,74.5 Z"/></g>
<g><path style="opacity:1" fill="#585858" d="M 63.5,74.5 C 66.5,74.5 69.5,74.5 72.5,74.5C 69.9541,78.9645 66.9541,82.9645 63.5,86.5C 63.5,82.5 63.5,78.5 63.5,74.5 Z"/></g>
<g><path style="opacity:1" fill="#0f0f10" d="M 63.5,101.5 C 63.5,99.5 63.5,97.5 63.5,95.5C 66.9748,89.8973 70.4748,84.2306 74,78.5C 74.4997,86.1594 74.6664,93.8261 74.5,101.5C 70.8333,101.5 67.1667,101.5 63.5,101.5 Z"/></g>
<g><path style="opacity:1" fill="#aaacb2" d="M 133.5,45.5 C 133.932,46.7095 134.599,47.7095 135.5,48.5C 135.5,49.1667 135.5,49.8333 135.5,50.5C 134.85,50.1961 134.183,49.8627 133.5,49.5C 132.318,52.5508 130.985,55.5508 129.5,58.5C 127.854,76.5498 124.687,94.2165 120,111.5C 117.973,117.289 114.806,122.289 110.5,126.5C 110.984,119.86 113.484,114.194 118,109.5C 119.532,101.705 121.532,94.0387 124,86.5C 125.36,72.6289 127.193,58.6289 129.5,44.5C 130.959,44.4326 132.292,44.7659 133.5,45.5 Z"/></g>
<g><path style="opacity:1" fill="#212121" d="M 83.5,74.5 C 84.1666,81.6775 84.8333,89.0109 85.5,96.5C 88.3661,94.5675 91.3661,92.9009 94.5,91.5C 94.5,95.1667 94.5,98.8333 94.5,102.5C 90.8333,102.5 87.1667,102.5 83.5,102.5C 83.5,93.1667 83.5,83.8333 83.5,74.5 Z"/></g>
<g><path style="opacity:1" fill="#c5c6c9" d="M 135.5,55.5 C 133.301,65.5728 132.134,75.9061 132,86.5C 129.068,93.5597 127.068,100.893 126,108.5C 123.497,115.807 119.33,121.807 113.5,126.5C 117.215,121.431 120.715,116.098 124,110.5C 125.246,100.695 127.246,91.0279 130,81.5C 131,73.1667 132,64.8333 133,56.5C 133.919,53.5984 134.752,53.2651 135.5,55.5 Z"/></g>
<g><path style="opacity:1" fill="#b6b7bc" d="M 135.5,50.5 C 136.15,52.4352 136.483,54.4352 136.5,56.5C 135.833,56.5 135.5,56.1667 135.5,55.5C 134.752,53.2651 133.919,53.5984 133,56.5C 132,64.8333 131,73.1667 130,81.5C 127.246,91.0279 125.246,100.695 124,110.5C 120.715,116.098 117.215,121.431 113.5,126.5C 111.364,128.812 109.364,131.312 107.5,134C 107.728,134.399 108.062,134.565 108.5,134.5C 108.5,134.833 108.5,135.167 108.5,135.5C 107.5,135.5 106.5,135.5 105.5,135.5C 102.002,135.435 101.502,134.101 104,131.5C 106.371,129.946 108.537,128.279 110.5,126.5C 114.806,122.289 117.973,117.289 120,111.5C 124.687,94.2165 127.854,76.5498 129.5,58.5C 130.985,55.5508 132.318,52.5508 133.5,49.5C 134.183,49.8627 134.85,50.1961 135.5,50.5 Z"/></g>
<g><path style="opacity:1" fill="#a0a3aa" d="M 133.5,45.5 C 132.292,44.7659 130.959,44.4326 129.5,44.5C 127.193,58.6289 125.36,72.6289 124,86.5C 121.532,94.0387 119.532,101.705 118,109.5C 113.484,114.194 110.984,119.86 110.5,126.5C 108.537,128.279 106.371,129.946 104,131.5C 101.502,134.101 102.002,135.435 105.5,135.5C 101.366,136.485 97.0323,136.818 92.5,136.5C 97.0743,132.95 101.741,129.283 106.5,125.5C 110.049,119.116 113.382,112.616 116.5,106C 119.385,87.9881 122.385,70.3214 125.5,53C 124.852,51.5603 124.519,50.0603 124.5,48.5C 125.461,44.6653 126.295,40.6653 127,36.5C 130.146,38.7909 132.312,41.7909 133.5,45.5 Z"/></g>
<g><path style="opacity:1" fill="#b8b9be" d="M 46.5,102.5 C 48.1667,102.5 49.8333,102.5 51.5,102.5C 51.1745,110.132 49.6745,117.466 47,124.5C 44.1763,127.498 40.6763,128.832 36.5,128.5C 35.3951,127.4 34.0618,126.733 32.5,126.5C 32.2671,124.938 31.6005,123.605 30.5,122.5C 35.4082,125.813 39.5749,125.147 43,120.5C 44.2357,114.489 45.4024,108.489 46.5,102.5 Z"/></g>
<g><path style="opacity:1" fill="#dfe0e2" d="M 24.5,111.5 C 24.5,111.167 24.5,110.833 24.5,110.5C 22.7434,93.8772 22.2434,77.2105 23,60.5C 23.4215,57.9801 24.5881,55.9801 26.5,54.5C 26.3457,49.4939 27.5124,44.8272 30,40.5C 32.0698,38.2132 34.5698,36.5466 37.5,35.5C 40.56,37.2781 41.56,39.7781 40.5,43C 41.1667,44.3333 41.8333,45.6667 42.5,47C 42.2094,49.1262 41.5427,51.4595 40.5,54C 39.8265,74.1311 37.3265,93.9644 33,113.5C 29.7925,116.487 27.9592,115.82 27.5,111.5C 26.5,111.5 25.5,111.5 24.5,111.5 Z"/></g>
<g><path style="opacity:1" fill="#d1d2d5" d="M 49.5,56.5 C 47.5,56.5 45.5,56.5 43.5,56.5C 43.1705,72.0091 43.5038,87.3424 44.5,102.5C 45.1667,102.5 45.8333,102.5 46.5,102.5C 45.4024,108.489 44.2357,114.489 43,120.5C 39.5749,125.147 35.4082,125.813 30.5,122.5C 28.246,118.993 26.246,115.327 24.5,111.5C 25.5,111.5 26.5,111.5 27.5,111.5C 27.9592,115.82 29.7925,116.487 33,113.5C 37.3265,93.9644 39.8265,74.1311 40.5,54C 41.5427,51.4595 42.2094,49.1262 42.5,47C 41.8333,45.6667 41.1667,44.3333 40.5,43C 41.56,39.7781 40.56,37.2781 37.5,35.5C 34.5698,36.5466 32.0698,38.2132 30,40.5C 27.5124,44.8272 26.3457,49.4939 26.5,54.5C 24.5881,55.9801 23.4215,57.9801 23,60.5C 22.2434,77.2105 22.7434,93.8772 24.5,110.5C 23.0135,105.37 21.8468,100.037 21,94.5C 20.2538,82.807 20.4204,71.1403 21.5,59.5C 22.2735,55.8598 22.9401,52.1932 23.5,48.5C 25.6144,42.7065 28.6144,37.3732 32.5,32.5C 33.1667,32.5 33.8333,32.5 34.5,32.5C 35.1667,32.5 35.8333,32.5 36.5,32.5C 46.1052,30.4191 51.1052,34.4191 51.5,44.5C 50.0608,48.5785 49.3942,52.5785 49.5,56.5 Z"/></g>
<g><path style="opacity:1" fill="#ebebeb" d="M 26.5,54.5 C 28.0121,49.8143 30.3454,45.481 33.5,41.5C 34.2508,42.376 34.7508,43.376 35,44.5C 35.3341,48.1991 35.5008,51.6991 35.5,55C 35.1404,60.2193 34.1404,65.2193 32.5,70C 33.428,70.3879 34.0946,71.0546 34.5,72C 32.8478,78.7463 31.6812,85.5796 31,92.5C 30.3034,95.6916 28.47,97.6916 25.5,98.5C 23.9853,83.7899 24.3186,69.1232 26.5,54.5 Z"/></g>
<g><path style="opacity:0.678" fill="#808080" d="M 136.5,104.5 C 136.966,109.307 135.799,113.974 133,118.5C 132.536,117.906 132.369,117.239 132.5,116.5C 134.399,112.699 135.732,108.699 136.5,104.5 Z"/></g>
<g><path style="opacity:1" fill="#d4d5d8" d="M 135.5,55.5 C 135.5,56.1667 135.833,56.5 136.5,56.5C 136.704,59.5176 137.037,62.5176 137.5,65.5C 136.732,64.7375 136.232,63.7375 136,62.5C 134.865,81.0065 131.365,99.0065 125.5,116.5C 122.869,122.298 118.702,126.631 113,129.5C 112.275,131.157 112.775,132.157 114.5,132.5C 112.898,134.074 110.898,134.741 108.5,134.5C 108.062,134.565 107.728,134.399 107.5,134C 109.364,131.312 111.364,128.812 113.5,126.5C 119.33,121.807 123.497,115.807 126,108.5C 127.068,100.893 129.068,93.5597 132,86.5C 132.134,75.9061 133.301,65.5728 135.5,55.5 Z"/></g>
</svg>
